#N canvas 1741 26 1678 1026 12;
#X obj 225 683 fsynth~;
#X obj 33 30 waveforms;
#X obj 46 79 r \$0-notes1;
#X obj 335 145 s \$0-notes1;
#X msg 267 41 69 74 79 84 89;
#X msg 291 64 69 74 79 84 89;
#X obj 110 190 vsl 12 64 0 1 0 0 empty empty empty 0 -9 0 10 -262144
-1 -1 0 0;
#X obj 736 227 lnois;
#X floatatom 735 253 5 0 0 0 - - -;
#X obj 795 225 lnois;
#X floatatom 795 248 5 0 0 0 - - -;
#X obj 848 224 lnois;
#X floatatom 848 249 5 0 0 0 - - -;
#X obj 902 222 lnois;
#X floatatom 902 249 5 0 0 0 - - -;
#X obj 302 685 fsynth~;
#X obj 380 681 fsynth~;
#X obj 453 680 fsynth~;
#X obj 57 264 pack 0 0;
#X obj 41 116 unpack 0 0 0 0 0;
#X obj 189 191 vsl 12 64 0 1 0 0 empty empty empty 0 -9 0 10 -262144
-1 -1 0 0;
#X obj 136 265 pack 0 0;
#X obj 264 189 vsl 12 64 0 1 0 0 empty empty empty 0 -9 0 10 -262144
-1 -1 0 0;
#X obj 211 263 pack 0 0;
#X obj 343 189 vsl 12 64 0 1 0 0 empty empty empty 0 -9 0 10 -262144
-1 -1 0 0;
#X obj 290 263 pack 0 0;
#X obj 773 198 unpack 0 0 0 0;
#X msg 768 148 9999 9111 11111 10210;
#X obj 465 -11 vradio 15 1 0 12 empty empty empty 0 -8 0 10 -262144
-1 -1 0;
#X obj 466 215 +;
#X floatatom 679 78 5 0 0 0 - - -;
#X obj 679 104 s \$0-root;
#X msg 679 54 60;
#X obj 677 26 loadbang;
#X obj 496 -11 vradio 15 1 0 12 empty empty empty 0 -8 0 10 -262144
-1 -1 7;
#X obj 497 215 +;
#X obj 529 -10 vradio 15 1 0 12 empty empty empty 0 -8 0 10 -262144
-1 -1 9;
#X obj 530 216 +;
#X obj 562 -8 vradio 15 1 0 12 empty empty empty 0 -8 0 10 -262144
-1 -1 0;
#X obj 563 218 +;
#X obj 478 258 pack 0 0 0 0;
#X obj 584 181 r \$0-root;
#X obj 186 8 print;
#X obj 627 235 bng 15 250 50 0 empty empty empty 17 7 0 10 -262144
-1 -1;
#X obj 223 811 dac~ 1 2 3 4;
#X obj 47 304 s \$0-voc1;
#X obj 137 301 s \$0-voc2;
#X obj 224 303 s \$0-voc3;
#X obj 314 300 s \$0-voc4;
#X obj 225 654 r \$0-voc1;
#X obj 303 653 r \$0-voc2;
#X obj 382 653 r \$0-voc3;
#X obj 453 654 r \$0-voc4;
#X obj 1308 316 pack 0 0 0 0 0 0;
#X obj 733 279 s \$0-noise0;
#X obj 793 304 s \$0-noise1;
#X obj 849 279 s \$0-noise2;
#X obj 902 302 s \$0-noise3;
#X obj 1334 157 vsl 15 128 0 8000 0 1 empty empty a 0 -9 0 10 -262144
-1 -1 1 1;
#X obj 272 627 r \$0-par0;
#X obj 352 628 r \$0-par0;
#X obj 428 629 r \$0-par0;
#X obj 501 628 r \$0-par0;
#X obj 1309 397 s \$0-par0;
#X obj 1310 132 vradio 15 1 1 7 empty empty waveform 0 -8 0 10 -262144
-1 -1 0;
#X obj 1435 164 vsl 15 128 1 4 0 1 empty empty fold 0 -9 0 10 -262144
-1 -1 7800 1;
#X obj 1363 161 vsl 15 128 0 8000 0 1 empty empty d 0 -9 0 10 -262144
-1 -1 0 1;
#X obj 1386 160 vsl 15 128 0 100 0 1 empty empty s 0 -9 0 10 -262144
-1 -1 12700 1;
#X obj 1413 164 vsl 15 128 0 8000 0 1 empty empty r 0 -9 0 10 -262144
-1 -1 2400 1;
#X obj 1224 295 bng 15 250 50 0 empty empty empty 17 7 0 10 -262144
-1 -1;
#X obj 597 328 notein;
#X floatatom 595 364 5 0 0 0 - - -;
#X floatatom 637 365 5 0 0 0 - - -;
#X floatatom 677 367 5 0 0 0 - - -;
#X obj 596 422 pack f f;
#X obj 598 522 pack 0 0 0;
#X obj 597 487 - 1;
#X obj 598 548 print;
#X obj 226 549 route 0 1 2 3 4 5 6 7;
#X obj 528 683 fsynth~;
#X obj 601 686 fsynth~;
#X obj 674 681 fsynth~;
#X obj 749 680 fsynth~;
#X obj 528 654 r \$0-voc1;
#X obj 600 654 r \$0-voc2;
#X obj 676 653 r \$0-voc3;
#X obj 749 654 r \$0-voc4;
#X obj 575 627 r \$0-par0;
#X obj 649 629 r \$0-par0;
#X obj 722 629 r \$0-par0;
#X obj 797 628 r \$0-par0;
#X obj 597 454 poly 8 1;
#X connect 0 0 44 0;
#X connect 2 0 19 0;
#X connect 2 0 42 0;
#X connect 4 0 3 0;
#X connect 5 0 3 0;
#X connect 6 0 18 1;
#X connect 7 0 8 0;
#X connect 8 0 54 0;
#X connect 9 0 10 0;
#X connect 10 0 55 0;
#X connect 11 0 12 0;
#X connect 12 0 56 0;
#X connect 13 0 14 0;
#X connect 14 0 57 0;
#X connect 15 0 44 1;
#X connect 16 0 44 2;
#X connect 17 0 44 3;
#X connect 18 0 45 0;
#X connect 19 0 18 0;
#X connect 19 1 21 0;
#X connect 19 2 23 0;
#X connect 19 3 25 0;
#X connect 20 0 21 1;
#X connect 21 0 46 0;
#X connect 22 0 23 1;
#X connect 23 0 47 0;
#X connect 24 0 25 1;
#X connect 25 0 48 0;
#X connect 26 0 7 0;
#X connect 26 1 9 0;
#X connect 26 2 11 0;
#X connect 26 3 13 0;
#X connect 27 0 26 0;
#X connect 28 0 29 0;
#X connect 28 0 43 0;
#X connect 29 0 40 0;
#X connect 30 0 31 0;
#X connect 32 0 30 0;
#X connect 33 0 32 0;
#X connect 34 0 35 0;
#X connect 34 0 43 0;
#X connect 35 0 40 1;
#X connect 36 0 37 0;
#X connect 36 0 43 0;
#X connect 37 0 40 2;
#X connect 38 0 39 0;
#X connect 38 0 43 0;
#X connect 39 0 40 3;
#X connect 40 0 3 0;
#X connect 41 0 29 1;
#X connect 41 0 35 1;
#X connect 41 0 37 1;
#X connect 41 0 39 1;
#X connect 43 0 40 0;
#X connect 49 0 0 0;
#X connect 50 0 15 0;
#X connect 51 0 16 0;
#X connect 52 0 17 0;
#X connect 53 0 63 0;
#X connect 58 0 53 1;
#X connect 58 0 69 0;
#X connect 59 0 0 1;
#X connect 60 0 15 1;
#X connect 61 0 16 1;
#X connect 62 0 17 1;
#X connect 64 0 53 0;
#X connect 64 0 69 0;
#X connect 65 0 53 5;
#X connect 65 0 69 0;
#X connect 66 0 53 2;
#X connect 66 0 69 0;
#X connect 67 0 53 3;
#X connect 67 0 69 0;
#X connect 68 0 53 4;
#X connect 68 0 69 0;
#X connect 69 0 53 0;
#X connect 70 0 71 0;
#X connect 70 1 72 0;
#X connect 70 2 73 0;
#X connect 71 0 74 0;
#X connect 72 0 74 1;
#X connect 74 0 91 0;
#X connect 75 0 77 0;
#X connect 75 0 78 0;
#X connect 76 0 75 0;
#X connect 78 0 0 0;
#X connect 78 1 15 0;
#X connect 78 2 16 0;
#X connect 78 3 17 0;
#X connect 78 4 79 0;
#X connect 78 5 80 0;
#X connect 78 6 81 0;
#X connect 78 7 82 0;
#X connect 79 0 44 0;
#X connect 80 0 44 1;
#X connect 81 0 44 2;
#X connect 82 0 44 3;
#X connect 83 0 79 0;
#X connect 84 0 80 0;
#X connect 85 0 81 0;
#X connect 86 0 82 0;
#X connect 87 0 79 1;
#X connect 88 0 80 1;
#X connect 89 0 81 1;
#X connect 90 0 82 1;
#X connect 91 0 76 0;
#X connect 91 1 75 1;
#X connect 91 2 75 2;
