#N canvas 1694 25 2145 1022 12;
#X obj 638 1089 dac~ 1 2 3 4;
#X floatatom 794 211 5 0 0 0 minNote - -;
#X floatatom 843 211 5 0 0 1 maxNote - -;
#X floatatom 662 193 5 0 0 0 - - -;
#X floatatom 699 414 5 0 0 0 - - -;
#X obj 664 158 500;
#X obj 230 29 bng 15 250 50 0 empty empty start/reset 17 7 0 10 -262144
-1 -1;
#X obj 457 446 bng 15 250 50 0 empty empty empty 17 7 0 10 -262144
-1 -1;
#X obj 939 660 vsl 15 128 0.01 1 1 1 empty empty volume 0 -9 0 10 -262144
-1 -1 12600 1;
#X obj 767 963 *~, f 2;
#X obj 738 524 f;
#X obj 359 333 receive clk8;
#X obj 680 456 pquant;
#X obj 310 181 send clk16;
#X obj 240 186 send clk8;
#X obj 168 198 send clk4;
#X obj 99 209 send clk2;
#X obj 31 221 send clk;
#X obj 230 146 clock, f 8;
#X obj 358 436 rangate;
#X obj 648 219 lnois;
#X obj 717 372 pscale;
#X obj 385 507 random 201;
#X obj 386 534 / 100;
#X obj 504 532 / 100;
#X obj 502 505 random 201;
#X obj 743 620 - 1;
#X obj 745 665 pack 0 0 0;
#X text 1905 128 RHYTHM;
#X text 1134 295 BASS;
#X text 1245 301 PAD;
#X obj 1940 340 eucrth;
#X obj 1939 191 receive clk16;
#X obj 1869 28 loadbang;
#X obj 1950 599 sampler~;
#X obj 1931 585 bng 15 250 50 0 empty empty empty 17 7 0 10 -262144
-1 -1;
#X obj 2023 556 vsl 15 40 0 1 0 1 empty empty empty 0 -9 0 10 -262144
-1 -1 3900 1;
#X obj 2019 324 bng 15 250 50 0 empty empty reset 17 7 0 10 -228856
-1 -1;
#X floatatom 1958 300 5 0 0 0 - - -;
#X floatatom 2006 300 5 0 0 0 - - -;
#N canvas 0 22 450 278 (subpatch) 0;
#X array rsnd0l 8891 float 2;
#X coords 0 1 8891 -1 40 30 1 0 0;
#X restore 2763 260 graph;
#N canvas 0 22 450 278 (subpatch) 0;
#X array rsnd0r 8891 float 2;
#X coords 0 1 8891 -1 40 30 1 0 0;
#X restore 2762 309 graph;
#X obj 2816 319 soundfiler;
#X obj 3007 144 loadbang;
#X symbolatom 3003 217 20 0 0 0 - - -;
#X symbolatom 3193 218 10 0 0 0 - - -;
#X text 1818 710 DRUM MIXER;
#X text 1037 1299 GENERAL MIXER;
#X obj 2038 669 vsl 15 128 0 1 0 1 empty empty empty 0 -9 0 10 -204786
-1 -1 0 1;
#X obj 2020 849 *~;
#X obj 1987 849 *~;
#X text 3198 162 ARRAY;
#X text 3079 164 SAMPLE;
#X text 2028 634 SND 1;
#N canvas 0 22 450 278 (subpatch) 0;
#X array rsnd1l 10496 float 2;
#X coords 0 1 10496 -1 40 30 1 0 0;
#X restore 2762 403 graph;
#N canvas 0 22 450 278 (subpatch) 0;
#X array rsnd1r 10496 float 2;
#X coords 0 1 10496 -1 40 30 1 0 0;
#X restore 2761 452 graph;
#X obj 2812 455 soundfiler;
#X obj 2997 290 loadbang;
#X symbolatom 2997 361 20 0 0 0 - - -;
#X obj 2997 313 bng 15 250 50 0 empty empty empty 17 7 0 10 -262144
-1 -1;
#X symbolatom 3190 351 10 0 0 0 - - -;
#N canvas 0 22 450 278 (subpatch) 0;
#X array rsnd2l 14718 float 2;
#X coords 0 1 14718 -1 40 30 1 0 0;
#X restore 2761 538 graph;
#N canvas 0 22 450 278 (subpatch) 0;
#X array rsnd2r 14718 float 2;
#X coords 0 1 14718 -1 40 30 1 0 0;
#X restore 2760 587 graph;
#X obj 2810 594 soundfiler;
#X obj 2998 425 loadbang;
#X symbolatom 2999 495 20 0 0 0 - - -;
#X obj 2999 449 bng 15 250 50 0 empty empty empty 17 7 0 10 -262144
-1 -1;
#X symbolatom 3192 495 10 0 0 0 - - -;
#N canvas 0 22 450 278 (subpatch) 0;
#X array rsnd3l 13567 float 2;
#X coords 0 1 13567 -1 40 30 1 0 0;
#X restore 2759 678 graph;
#N canvas 0 22 450 278 (subpatch) 0;
#X array rsnd3r 13567 float 2;
#X coords 0 1 13567 -1 40 30 1 0 0;
#X restore 2758 727 graph;
#X obj 2813 733 soundfiler;
#X obj 2998 563 loadbang;
#X symbolatom 2997 637 20 0 0 0 - - -;
#X obj 2999 587 bng 15 250 50 0 empty empty empty 17 7 0 10 -262144
-1 -1;
#X symbolatom 3188 644 10 0 0 0 - - -;
#X obj 1199 1435 vsl 15 128 0 127 0 0 empty empty empty 0 -9 0 10 -262144
-1 -1 0 1;
#X obj 3005 171 bng 15 250 50 0 empty empty empty 17 7 0 10 -262144
-1 -1;
#X obj 3194 248 send rsnd0;
#X obj 1970 527 receive rsnd0;
#X obj 3190 380 send rsnd1;
#X obj 3192 526 send rsnd2;
#X obj 3189 672 send rsnd3;
#X obj 2145 668 vsl 15 128 0 1 0 1 empty empty empty 0 -9 0 10 -204786
-1 -1 4000 1;
#X obj 2136 837 *~;
#X obj 2103 837 *~;
#X text 2135 633 SND 2;
#X obj 2269 666 vsl 15 128 0 1 0 1 empty empty empty 0 -9 0 10 -204786
-1 -1 0 1;
#X obj 2245 833 *~;
#X obj 2212 833 *~;
#X text 2257 631 SND 3;
#X obj 2394 665 vsl 15 128 0 1 0 1 empty empty empty 0 -9 0 10 -204786
-1 -1 6300 1;
#X obj 2356 839 *~;
#X obj 2323 839 *~;
#X obj 2073 339 eucrth;
#X obj 2064 192 receive clk16;
#X obj 2068 599 sampler~;
#X obj 2048 575 bng 15 250 50 0 empty empty empty 17 7 0 10 -262144
-1 -1;
#X obj 2144 559 vsl 15 40 0 1 0 1 empty empty empty 0 -9 0 10 -262144
-1 -1 3900 1;
#X obj 2154 321 bng 15 250 50 0 empty empty reset 17 7 0 10 -228856
-1 -1;
#X floatatom 2093 297 5 0 0 0 - - -;
#X floatatom 2141 297 5 0 0 0 - - -;
#X obj 2204 336 eucrth;
#X obj 2193 192 receive clk16;
#X obj 2199 596 sampler~;
#X obj 2179 572 bng 15 250 50 0 empty empty empty 17 7 0 10 -262144
-1 -1;
#X obj 2272 554 vsl 15 40 0 1 0 1 empty empty empty 0 -9 0 10 -262144
-1 -1 3900 1;
#X obj 2268 321 bng 15 250 50 0 empty empty reset 17 7 0 10 -228856
-1 -1;
#X floatatom 2217 296 5 0 0 0 - - -;
#X floatatom 2265 296 5 0 0 0 - - -;
#X obj 2331 333 eucrth;
#X obj 2327 189 receive clk16;
#X obj 2326 593 sampler~;
#X obj 2306 569 bng 15 250 50 0 empty empty empty 17 7 0 10 -262144
-1 -1;
#X obj 2396 550 vsl 15 40 0 1 0 1 empty empty empty 0 -9 0 10 -262144
-1 -1 3900 1;
#X obj 2403 320 bng 15 250 50 0 empty empty reset 17 7 0 10 -228856
-1 -1;
#X floatatom 2351 297 5 0 0 0 - - -;
#X floatatom 2399 297 5 0 0 0 - - -;
#X obj 2083 528 receive rsnd1;
#X obj 2217 525 receive rsnd2;
#X obj 2351 524 receive rsnd3;
#X msg 3193 186 symbol rsnd0;
#X msg 3190 321 symbol rsnd1;
#X msg 3192 456 symbol rsnd2;
#X msg 3189 602 symbol rsnd3;
#X obj 2042 39 bng 15 250 50 0 empty empty empty 17 7 0 10 -204786
-1 -1;
#X obj 2043 76 random 4;
#X obj 2112 74 random 8;
#X obj 2179 75 random 6;
#X obj 2244 73 random 7;
#X obj 2043 102 send r0s;
#X obj 2112 102 send r1s;
#X obj 2179 103 send r2s;
#X obj 2244 104 send r3s;
#X obj 1956 269 receive r0s;
#X obj 2082 267 receive r1s;
#X obj 2215 267 receive r2s;
#X obj 2351 269 receive r3s;
#X text 2134 10 RHYTHM RANDOMIZER;
#X obj 2816 259 pack s s;
#X msg 2816 288 read -resize \$1 \$2l \$2r;
#X obj 2812 395 pack s s;
#X obj 2810 534 pack s s;
#X obj 2813 673 pack s s;
#X msg 2812 424 read -resize \$1 \$2l \$2r;
#X msg 2810 563 read -resize \$1 \$2l \$2r;
#X msg 2813 702 read -resize \$1 \$2l \$2r;
#X msg 2997 333 symbol clav7.wav;
#X msg 2998 607 symbol various61.wav;
#X obj 1869 110 send steps;
#X obj 1945 217 receive steps;
#X obj 2073 216 receive steps;
#X obj 2204 219 receive steps;
#X obj 2336 214 receive steps;
#X text 2382 632 SND 4;
#X msg 1869 60 16;
#X obj 1023 199 scalemaker;
#X obj 1037 104 bng 15 250 50 0 empty empty empty 17 7 0 10 -262144
-1 -1;
#N canvas 1933 399 562 428 (subpatch) 0;
#X array scale 128 float 3;
#A 0 -1 -1 -1 -1 -1 -1 -1 -1 -1 -1 -1 -1 -1 -1 -1 -1 -1 -1 -1 -1 -1
-1 -1 -1 -1 -1 -1 -1 -1 -1 -1 -1 -1 -1 -1 -1 -1 -1 -1 -1 -1 -1 -1 -1
-1 -1 -1 -1 -1 -1 -1 -1 -1 -1 -1 -1 -1 -1 -1 -1 -1 -1 -1 -1 -1 -1 -1
-1 -1 -1 -1 -1 -1 -1 -1 -1 -1 -1 -1 -1 -1 -1 -1 -1 -1 -1 -1 -1 -1 -1
-1 -1 -1 -1 -1 -1 -1 -1 -1 -1 -1 -1 -1 -1 -1 -1 -1 -1 -1 -1 -1 -1 -1
-1 -1 -1 -1 -1 -1 -1 -1 -1 -1 -1 -1 -1 -1 -1;
#X coords 0 128 128 -1 128 128 1 0 0;
#X restore 1331 51 graph;
#X floatatom 1945 242 5 0 0 0 - - -;
#X floatatom 2074 241 5 0 0 0 - - -;
#X floatatom 2205 244 5 0 0 0 - - -;
#X floatatom 2342 243 5 0 0 0 - - -;
#X floatatom 270 92 5 0 0 0 - - -;
#X msg 270 60 120;
#X obj 36 381 waveforms;
#X msg 404 363 100;
#X obj 454 476 bng 15 250 50 0 empty empty empty 17 7 0 10 -262144
-1 -1;
#X obj 743 592 poly 4 1;
#X obj 667 102 bng 15 250 50 0 empty empty empty 17 7 0 10 -262144
-1 -1;
#X msg 319 544 4;
#X obj 320 344 bng 15 250 50 0 empty empty empty 17 7 0 10 -262144
-1 -1;
#X obj 610 914 fsynth~ 4;
#X obj 686 916 fsynth~ 4;
#X obj 767 916 fsynth~ 4;
#X obj 844 918 fsynth~ 4;
#X obj 726 694 route 0 1 2 3;
#X obj 2105 932 dac~ 1 2 3 4;
#X obj 106 629 quadpanner2~;
#X obj 1956 370 send eucrth0;
#X obj 2084 367 send eucrth1;
#X obj 2214 369 send eucrth2;
#X obj 2344 361 send eucrth3;
#X obj 1948 498 receive eucrth0;
#X obj 2075 500 receive eucrth1;
#X obj 2209 498 receive eucrth2;
#X obj 2334 498 receive eucrth3;
#X obj 869 249 receive eucrth0;
#X obj 874 273 receive eucrth1;
#X obj 879 297 receive eucrth2;
#X obj 882 320 receive eucrth3;
#X msg 3004 190 symbol kick115.wav;
#X msg 2999 466 symbol shaker60.wav;
#X obj 190 535 counter;
#X obj 611 948 *~, f 2;
#X obj 844 966 *~, f 2;
#X obj 685 954 *~, f 2;
#N canvas 0 22 450 278 (subpatch) 0;
#X array melodyCurve 128 float 1;
#A 0 0.640625 0.640625 0.635938 0.63125 0.626563 0.621875 0.617188
0.613281 0.609375 0.605469 0.601562 0.597656 0.59375 0.585938 0.578125
0.570312 0.5625 0.5625 0.556641 0.550781 0.544922 0.539062 0.534375
0.529688 0.525 0.520313 0.515625 0.512695 0.509766 0.506836 0.503906
0.476562 0.476562 0.472656 0.46875 0.460938 0.453125 0.445313 0.442188
0.439063 0.435938 0.432813 0.429688 0.421875 0.414062 0.414062 0.414062
0.414062 0.410156 0.40625 0.40625 0.453125 0.473958 0.494792 0.515625
0.53125 0.546875 0.5625 0.601562 0.609375 0.609375 0.606771 0.604167
0.601562 0.59375 0.578125 0.5625 0.546875 0.53125 0.515625 0.5 0.484375
0.471354 0.458333 0.445312 0.433594 0.421875 0.410156 0.398438 0.386719
0.375 0.375 0.390625 0.401562 0.4125 0.423437 0.434375 0.445312 0.445312
0.453125 0.460938 0.46875 0.476562 0.484375 0.492188 0.505208 0.518229
0.53125 0.544271 0.557292 0.570312 0.580729 0.591146 0.601562 0.601562
0.59375 0.585938 0.585937 0.580729 0.575521 0.570312 0.565104 0.559896
0.554688 0.550781 0.546875 0.542969 0.539062 0.53125 0.53125 0.527344
0.523438 0.523438 0.520833 0.518229 0.515625 0.515625 0.507812;
#X coords 0 1 127 0 128 128 1 0 0;
#X restore 1501 59 graph;
#X obj 560 340 tabread melodyCurve;
#N canvas 2125 183 700 500 scaleclimber 0;
#X obj 161 229 tabread scale;
#X obj 160 129 inlet;
#X obj 164 291 select -1;
#X obj 231 356 outlet;
#X text 249 317 will always output latest valid note;
#X text 307 108 maps input 0..1 to a given scale table with 128 notes
;
#X text 283 147 TODO: MAKE NOTE AMT DYNAMIC ACCORDING TO GIVEN TABLE
;
#X obj 244 19 loadbang;
#X obj 245 48 bng 15 250 50 0 empty empty empty 17 7 0 10 -262144 -1
-1;
#X obj 221 102 array size;
#X msg 268 74 symbol scale;
#X obj 216 144 - 1;
#X obj 161 167 *;
#X obj 297 258 line;
#X floatatom 77 237 5 0 0 0 - - -;
#X floatatom 97 290 5 0 0 0 - - -;
#X msg 298 221 \$1 4;
#X connect 0 0 2 0;
#X connect 1 0 12 0;
#X connect 2 1 3 0;
#X connect 7 0 8 0;
#X connect 8 0 10 0;
#X connect 8 0 9 0;
#X connect 9 0 11 0;
#X connect 10 0 9 1;
#X connect 11 0 12 1;
#X connect 12 0 14 0;
#X connect 12 0 16 0;
#X connect 13 0 0 0;
#X connect 13 0 15 0;
#X connect 16 0 13 0;
#X restore 539 386 pd scaleclimber;
#X floatatom 542 420 5 0 0 0 - - -;
#X floatatom 403 397 5 0 0 0 - - -;
#X text 817 26 set range (oct);
#X floatatom 800 84 5 0 0 0 - - -;
#X floatatom 848 84 5 0 0 0 - - -;
#X obj 799 110 * 12;
#X obj 847 111 * 12;
#X msg 800 58 4;
#X msg 848 58 6;
#X text 883 51 default values;
#X text 46 359 basic waveforms be stored here arr;
#X msg 319 59 4;
#X floatatom 320 94 5 0 0 0 - - -;
#X text 364 93 bars;
#X obj 1499 187 hsl 128 16 0 1 0 0 empty empty empty -2 -8 0 10 -262130
-1 -1 0 1;
#X text 1006 250 TODO GENREL: load heart rate curve data into array
here!;
#X obj 1646 62 vsl 128 128 0 1 0 0 empty empty empty 0 -9 0 10 -262144
-1 -1 0 1;
#X obj 521 311 *;
#X obj 586 201 loadbang;
#X obj 587 230 bng 15 250 50 0 empty empty empty 17 7 0 10 -262144
-1 -1;
#X obj 563 284 array size;
#X msg 593 256 symbol melodyCurve;
#X obj 386 169 send phase;
#X obj 501 251 receive phase, f 7;
#X obj 1486 9 receive phase, f 7;
#X msg 1111 46 1 0 1 0 0 1 0 1 0 0 0 0;
#X msg 1115 98 1 0 1 0 0 1 0 1 0 0 1 0;
#X text 2740 193 RHYTHM SAMPLES;
#N canvas 0 22 450 278 (subpatch) 0;
#X array tsnd0l 8891 float 2;
#X coords 0 1 8891 -1 40 30 1 0 0;
#X restore 2759 883 graph;
#N canvas 0 22 450 278 (subpatch) 0;
#X array tsnd0r 8891 float 2;
#X coords 0 1 8891 -1 40 30 1 0 0;
#X restore 2758 932 graph;
#X obj 2812 942 soundfiler;
#X obj 3000 771 loadbang;
#X symbolatom 2999 840 20 0 0 0 - - -;
#X symbolatom 3189 841 10 0 0 0 - - -;
#X text 3194 785 ARRAY;
#X text 3075 787 SAMPLE;
#N canvas 0 22 450 278 (subpatch) 0;
#X array tsnd1l 10496 float 2;
#X coords 0 1 10496 -1 40 30 1 0 0;
#X restore 2758 1026 graph;
#N canvas 0 22 450 278 (subpatch) 0;
#X array tsnd1r 10496 float 2;
#X coords 0 1 10496 -1 40 30 1 0 0;
#X restore 2757 1075 graph;
#X obj 2808 1078 soundfiler;
#X obj 2993 913 loadbang;
#X symbolatom 2993 984 20 0 0 0 - - -;
#X obj 2993 936 bng 15 250 50 0 empty empty empty 17 7 0 10 -262144
-1 -1;
#X symbolatom 3186 974 10 0 0 0 - - -;
#N canvas 0 22 450 278 (subpatch) 0;
#X array tsnd2l 14718 float 2;
#X coords 0 1 14718 -1 40 30 1 0 0;
#X restore 2757 1161 graph;
#N canvas 0 22 450 278 (subpatch) 0;
#X array tsnd2r 14718 float 2;
#X coords 0 1 14718 -1 40 30 1 0 0;
#X restore 2756 1210 graph;
#X obj 2806 1217 soundfiler;
#X obj 2994 1042 loadbang;
#X symbolatom 2995 1118 20 0 0 0 - - -;
#X obj 2995 1066 bng 15 250 50 0 empty empty empty 17 7 0 10 -262144
-1 -1;
#X symbolatom 3188 1118 10 0 0 0 - - -;
#N canvas 0 22 450 278 (subpatch) 0;
#X array tsnd3l 13567 float 2;
#X coords 0 1 13567 -1 40 30 1 0 0;
#X restore 2755 1301 graph;
#N canvas 0 22 450 278 (subpatch) 0;
#X array tsnd3r 13567 float 2;
#X coords 0 1 13567 -1 40 30 1 0 0;
#X restore 2754 1350 graph;
#X obj 2809 1356 soundfiler;
#X obj 2994 1186 loadbang;
#X symbolatom 2993 1260 20 0 0 0 - - -;
#X obj 2995 1210 bng 15 250 50 0 empty empty empty 17 7 0 10 -262144
-1 -1;
#X symbolatom 3185 1266 10 0 0 0 - - -;
#X obj 3001 794 bng 15 250 50 0 empty empty empty 17 7 0 10 -262144
-1 -1;
#X obj 2812 882 pack s s;
#X msg 2812 911 read -resize \$1 \$2l \$2r;
#X obj 2808 1018 pack s s;
#X obj 2806 1157 pack s s;
#X obj 2809 1296 pack s s;
#X msg 2808 1047 read -resize \$1 \$2l \$2r;
#X msg 2806 1186 read -resize \$1 \$2l \$2r;
#X msg 2809 1325 read -resize \$1 \$2l \$2r;
#X msg 2993 956 symbol clav7.wav;
#X msg 2994 1230 symbol various61.wav;
#X msg 3000 813 symbol kick115.wav;
#X msg 2995 1089 symbol shaker60.wav;
#X text 2736 816 TONAL SAMPLES;
#X msg 3189 809 symbol tsnd0;
#X obj 3190 871 send tsnd0;
#X msg 3186 944 symbol tsnd1;
#X obj 3186 1003 send tsnd1;
#X msg 3188 1079 symbol tsnd2;
#X obj 3188 1149 send tsnd2;
#X msg 3185 1225 symbol tsnd3;
#X obj 3186 1295 send tsnd3;
#X msg 1132 174 0 0 0 0 0 0 0 0 0 0 0 0;
#X msg 1124 145 0 0 0 0 0 1 0 1 0 1 0 1;
#X floatatom 1869 84 5 0 0 0 - - -;
#X obj 1226 812 dac~ 1 2;
#X obj 1335 531 - 1;
#X obj 1337 576 pack 0 0 0;
#X obj 1335 503 poly 4 1;
#X obj 1318 605 route 0 1 2 3;
#X obj 1285 389 bng 15 250 50 0 empty empty empty 17 7 0 10 -262144
-1 -1;
#X obj 1226 428 f;
#X floatatom 1191 371 5 0 0 0 - - -;
#X obj 1189 343 bng 15 250 50 0 empty empty empty 17 7 0 10 -262144
-1 -1;
#X msg 1292 467 \$1 \$2;
#X obj 1294 434 \$1 \$2;
#X obj 1223 534 print;
#X obj 1066 551 loadbang;
#X msg 1066 582 2;
#X floatatom 1066 612 5 0 0 0 - - -;
#X obj 1592 563 psynth~;
#X obj 1179 734 psynth~;
#X obj 1220 688 \$1 \$2;
#X floatatom 1088 692 5 0 0 0 - - -;
#X obj 1385 298 vsl 15 128 0 1 0 0 empty empty empty 0 -9 0 10 -262144
-1 -1 0 1;
#X obj 490 664 vsl 15 128 0 10000 0 0 empty empty A 0 -9 0 10 -262144
-1 -1 0 1;
#X obj 533 661 vsl 15 128 0 10000 0 1 empty empty D 0 -9 0 10 -262144
-1 -1 2800 1;
#X obj 570 657 vsl 15 128 0 100 0 0 empty empty S 0 -9 0 10 -262144
-1 -1 0 1;
#X obj 605 651 vsl 15 128 0 10000 0 1 empty empty R 0 -9 0 10 -262144
-1 -1 0 1;
#X obj 456 584 loadbang;
#X floatatom 417 751 5 0 0 0 - - -;
#X obj 454 607 bng 15 250 50 0 empty empty empty 17 7 0 10 -262144
-1 -1;
#X obj 742 552 pack 0 0;
#X text 1468 222 TODO phase seems to be fixed to 120bpm Make phase
speed dynamic!;
#X obj 876 354 bng 15 250 50 0 empty empty empty 17 7 0 10 -262144
-1 -1;
#X obj 874 419 0;
#X obj 833 392 1;
#X obj 875 392 delay 100 1 msec;
#X floatatom 796 446 5 0 0 0 - - -;
#X obj 747 474 change;
#X obj 741 498 bng 15 250 50 0 empty empty empty 17 7 0 10 -262144
-1 -1;
#X obj 800 425 tgl 15 0 empty empty empty 17 7 0 10 -262144 -1 -1 0
1;
#X obj 497 834 pack 0 0 0 0 0 0;
#X floatatom 640 704 5 0 0 0 - - -;
#X msg 418 720 3;
#X msg 648 654 2;
#X obj 418 885 s \$0-paramchange1;
#X obj 761 832 r \$0-paramchange1;
#X connect 6 0 18 0;
#X connect 6 0 163 0;
#X connect 6 0 210 0;
#X connect 11 0 170 0;
#X connect 18 0 17 0;
#X connect 18 0 221 0;
#X connect 18 0 16 0;
#X connect 18 0 15 0;
#X connect 18 0 14 0;
#X connect 18 0 13 0;
#X connect 31 0 178 0;
#X connect 32 0 31 0;
#X connect 33 0 154 0;
#X connect 34 0 50 0;
#X connect 34 1 49 0;
#X connect 35 0 34 0;
#X connect 36 0 34 2;
#X connect 37 0 31 4;
#X connect 38 0 31 2;
#X connect 39 0 31 3;
#X connect 43 0 76 0;
#X connect 44 0 138 0;
#X connect 45 0 77 0;
#X connect 45 0 138 1;
#X connect 48 0 50 1;
#X connect 48 0 49 1;
#X connect 49 0 176 0;
#X connect 50 0 176 0;
#X connect 57 0 59 0;
#X connect 58 0 140 0;
#X connect 59 0 146 0;
#X connect 59 0 121 0;
#X connect 60 0 79 0;
#X connect 60 0 140 1;
#X connect 64 0 66 0;
#X connect 65 0 141 0;
#X connect 66 0 191 0;
#X connect 66 0 122 0;
#X connect 67 0 80 0;
#X connect 67 0 141 1;
#X connect 71 0 73 0;
#X connect 72 0 142 0;
#X connect 73 0 147 0;
#X connect 73 0 123 0;
#X connect 74 0 81 0;
#X connect 74 0 142 1;
#X connect 76 0 190 0;
#X connect 76 0 120 0;
#X connect 78 0 34 1;
#X connect 82 0 84 1;
#X connect 82 0 83 1;
#X connect 83 0 176 1;
#X connect 84 0 176 1;
#X connect 86 0 88 1;
#X connect 86 0 87 1;
#X connect 87 0 176 2;
#X connect 88 0 176 2;
#X connect 90 0 92 1;
#X connect 90 0 91 1;
#X connect 91 0 176 3;
#X connect 92 0 176 3;
#X connect 93 0 179 0;
#X connect 94 0 93 0;
#X connect 95 0 84 0;
#X connect 95 1 83 0;
#X connect 96 0 95 0;
#X connect 98 0 93 4;
#X connect 99 0 93 2;
#X connect 101 0 180 0;
#X connect 102 0 101 0;
#X connect 103 0 88 0;
#X connect 103 1 87 0;
#X connect 104 0 103 0;
#X connect 105 0 103 2;
#X connect 106 0 101 3;
#X connect 107 0 101 2;
#X connect 109 0 181 0;
#X connect 110 0 109 0;
#X connect 111 0 92 0;
#X connect 111 1 91 0;
#X connect 112 0 111 0;
#X connect 113 0 111 2;
#X connect 114 0 109 4;
#X connect 115 0 109 2;
#X connect 117 0 95 1;
#X connect 118 0 103 1;
#X connect 119 0 111 1;
#X connect 120 0 45 0;
#X connect 121 0 60 0;
#X connect 122 0 67 0;
#X connect 123 0 74 0;
#X connect 124 0 125 0;
#X connect 124 0 128 0;
#X connect 124 0 127 0;
#X connect 124 0 126 0;
#X connect 125 0 129 0;
#X connect 126 0 130 0;
#X connect 127 0 131 0;
#X connect 128 0 132 0;
#X connect 133 0 38 0;
#X connect 134 0 99 0;
#X connect 135 0 107 0;
#X connect 136 0 115 0;
#X connect 138 0 139 0;
#X connect 139 0 42 0;
#X connect 140 0 143 0;
#X connect 141 0 144 0;
#X connect 142 0 145 0;
#X connect 143 0 56 0;
#X connect 144 0 63 0;
#X connect 145 0 70 0;
#X connect 146 0 58 0;
#X connect 147 0 72 0;
#X connect 149 0 158 0;
#X connect 150 0 159 0;
#X connect 151 0 160 0;
#X connect 152 0 161 0;
#X connect 154 0 280 0;
#X connect 156 0 155 0;
#X connect 158 0 31 1;
#X connect 159 0 93 1;
#X connect 160 0 101 1;
#X connect 161 0 109 1;
#X connect 162 0 18 1;
#X connect 163 0 162 0;
#X connect 165 0 200 0;
#X connect 170 0 165 0;
#X connect 170 0 19 0;
#X connect 182 0 34 0;
#X connect 183 0 95 0;
#X connect 184 0 103 0;
#X connect 185 0 111 0;
#X connect 186 0 310 0;
#X connect 187 0 310 0;
#X connect 188 0 310 0;
#X connect 189 0 310 0;
#X connect 190 0 44 0;
#X connect 191 0 65 0;
#X connect 197 0 198 0;
#X connect 198 0 199 0;
#X connect 200 0 19 1;
#X connect 202 0 204 0;
#X connect 203 0 205 0;
#X connect 204 0 1 0;
#X connect 205 0 2 0;
#X connect 206 0 202 0;
#X connect 207 0 203 0;
#X connect 210 0 211 0;
#X connect 211 0 18 2;
#X connect 216 0 197 0;
#X connect 217 0 218 0;
#X connect 218 0 220 0;
#X connect 218 0 219 0;
#X connect 219 0 216 1;
#X connect 220 0 219 1;
#X connect 222 0 216 0;
#X connect 224 0 155 0;
#X connect 225 0 155 0;
#X connect 231 0 257 0;
#X connect 232 0 271 0;
#X connect 232 0 257 1;
#X connect 238 0 240 0;
#X connect 239 0 259 0;
#X connect 240 0 272 0;
#X connect 240 0 265 0;
#X connect 241 0 273 0;
#X connect 241 0 259 1;
#X connect 245 0 247 0;
#X connect 246 0 260 0;
#X connect 247 0 268 0;
#X connect 247 0 274 0;
#X connect 248 0 260 1;
#X connect 248 0 275 0;
#X connect 252 0 254 0;
#X connect 253 0 261 0;
#X connect 254 0 266 0;
#X connect 254 0 276 0;
#X connect 255 0 277 0;
#X connect 255 0 261 1;
#X connect 256 0 267 0;
#X connect 256 0 270 0;
#X connect 257 0 258 0;
#X connect 258 0 229 0;
#X connect 259 0 262 0;
#X connect 260 0 263 0;
#X connect 261 0 264 0;
#X connect 262 0 237 0;
#X connect 263 0 244 0;
#X connect 264 0 251 0;
#X connect 265 0 239 0;
#X connect 266 0 253 0;
#X connect 267 0 231 0;
#X connect 268 0 246 0;
#X connect 270 0 232 0;
#X connect 272 0 241 0;
#X connect 274 0 248 0;
#X connect 276 0 255 0;
#X connect 278 0 155 0;
#X connect 279 0 155 0;
#X connect 280 0 148 0;
#X connect 301 0 318 1;
#X connect 302 0 318 2;
#X connect 303 0 318 3;
#X connect 304 0 318 4;
#X connect 305 0 307 0;
#X connect 306 0 318 0;
#X connect 307 0 320 0;
#X connect 307 0 301 0;
#X connect 307 0 302 0;
#X connect 307 0 303 0;
#X connect 307 0 304 0;
#X connect 307 0 321 0;
#X connect 318 0 322 0;
#X connect 319 0 318 5;
#X connect 320 0 306 0;
#X connect 321 0 319 0;
#X connect 323 0 171 1;
#X connect 323 0 174 1;
#X connect 323 0 173 1;
#X connect 323 0 172 1;
#X coords 0 0 1 1 85 60 0;
