#N canvas 792 202 663 683 12;
#X obj 301 39 moses;
#X text 155 6 trigger;
#X obj 390 40 inlet;
#X obj 448 40 inlet;
#X obj 506 42 inlet;
#X obj 565 42 inlet;
#X obj 634 43 inlet;
#X text 386 15 level;
#X text 444 14 attack;
#X text 506 13 decay;
#X text 558 16 sustain;
#X text 621 16 release;
#X obj 167 30 inlet;
#X obj 164 69 sel 0;
#X obj 83 515 line~;
#X obj 79 563 outlet~;
#X obj 300 100 t b b;
#X obj 364 140 t b;
#X msg 77 222 0;
#X obj 598 300 pack 0 \$5;
#X msg 165 104 stop;
#X obj 365 208 del \$2;
#X obj 270 228 f \$1;
#X obj 261 259 pack 0 \$2;
#X text 368 188 DECAY;
#X obj 365 238 f \$4;
#X obj 362 274 * 0.01;
#X obj 412 302 * \$1;
#X obj 410 329 pack 0 \$3;
#X connect 0 0 16 0;
#X connect 0 1 17 0;
#X connect 2 0 22 1;
#X connect 2 0 27 1;
#X connect 3 0 21 1;
#X connect 3 0 23 1;
#X connect 4 0 28 1;
#X connect 5 0 25 1;
#X connect 6 0 19 1;
#X connect 12 0 13 0;
#X connect 13 0 20 0;
#X connect 13 0 19 0;
#X connect 13 1 0 0;
#X connect 14 0 15 0;
#X connect 16 0 17 0;
#X connect 16 1 18 0;
#X connect 17 0 21 0;
#X connect 17 0 22 0;
#X connect 18 0 14 0;
#X connect 19 0 14 0;
#X connect 20 0 21 0;
#X connect 21 0 25 0;
#X connect 22 0 23 0;
#X connect 23 0 14 0;
#X connect 25 0 26 0;
#X connect 26 0 27 0;
#X connect 27 0 28 0;
#X connect 28 0 14 0;
