#N canvas 358 335 968 500 12;
#X obj 290 114 osc~ 440;
#X obj 357 140 vline~;
#X obj 289 165 *~;
#X obj 353 26 inlet;
#X obj 287 205 outlet~;
#X obj 400 57 mtof;
#X obj 398 26 inlet;
#X msg 354 113 1 40 \, 0 10000 40;
#X connect 0 0 2 0;
#X connect 1 0 2 1;
#X connect 2 0 4 0;
#X connect 3 0 7 0;
#X connect 5 0 0 0;
#X connect 6 0 5 0;
#X connect 7 0 1 0;
