#N canvas 494 331 1033 632 12;
#X obj 22 45 inlet;
#X msg 83 303 tempo \$1 permin;
#X obj 84 218 bng 15 250 50 0 empty empty empty 17 7 0 10 -262144 -1
-1;
#X obj 376 173 % 8;
#X obj 426 163 % 4;
#X obj 321 210 sel 0;
#X obj 376 202 sel 0;
#X obj 426 189 sel 0;
#X obj 321 182 % 16;
#X obj 476 153 % 2;
#X obj 474 178 sel 0;
#X obj 528 169 sel 0;
#X obj 527 143 % 1;
#X obj 611 379 outlet;
#X obj 512 384 outlet;
#X obj 427 384 outlet;
#X obj 336 386 outlet;
#X obj 235 390 outlet;
#X text 483 385 8th;
#X text 399 383 4th;
#X text 300 387 half;
#X text 187 390 whole;
#X text 574 383 16th;
#X msg 83 243 90;
#X obj 173 49 inlet;
#X text 173 20 bpm;
#X obj 704 377 outlet;
#X obj 677 161 phasor~;
#X obj 686 201 snapshot~;
#X obj 791 152 metro 1;
#X obj 756 102 loadbang;
#X obj 727 16 inlet;
#X text 723 -12 length (bars);
#X obj 59 344 metro 0.25 120 permin;
#X msg 731 75 0;
#X obj 677 136 sig~;
#X obj 59 453 bng 15 250 50 0 empty empty empty 17 7 0 10 -262144 -1
-1;
#X obj 678 52 / 60;
#X obj 900 257 * 16;
#X obj 900 291 int;
#X obj 849 324 change;
#X obj 881 393 f;
#X obj 846 362 bng 15 250 50 0 empty empty empty 17 7 0 10 -262144
-1 -1;
#X obj 881 430 send \$0-step;
#X obj 318 101 receive \$0-step;
#X obj 21 83 send \$0-startreset;
#X obj 730 49 receive \$0-startreset;
#X text 23 15 start/reset;
#X obj 42 187 receive \$0-startreset;
#X floatatom 203 188 5 0 0 0 - - -;
#X obj 678 81 /;
#X connect 0 0 45 0;
#X connect 1 0 33 0;
#X connect 2 0 23 0;
#X connect 3 0 6 0;
#X connect 4 0 7 0;
#X connect 5 0 17 0;
#X connect 6 0 16 0;
#X connect 7 0 15 0;
#X connect 8 0 5 0;
#X connect 9 0 10 0;
#X connect 10 0 14 0;
#X connect 11 0 13 0;
#X connect 12 0 11 0;
#X connect 23 0 1 0;
#X connect 24 0 37 0;
#X connect 24 0 49 0;
#X connect 27 0 28 0;
#X connect 28 0 26 0;
#X connect 28 0 38 0;
#X connect 29 0 28 0;
#X connect 30 0 29 0;
#X connect 31 0 50 1;
#X connect 33 0 36 0;
#X connect 34 0 27 1;
#X connect 35 0 27 0;
#X connect 37 0 50 0;
#X connect 38 0 39 0;
#X connect 39 0 40 0;
#X connect 39 0 41 1;
#X connect 40 0 42 0;
#X connect 41 0 43 0;
#X connect 42 0 41 0;
#X connect 44 0 8 0;
#X connect 44 0 3 0;
#X connect 44 0 4 0;
#X connect 44 0 9 0;
#X connect 44 0 12 0;
#X connect 46 0 34 0;
#X connect 48 0 33 0;
#X connect 48 0 2 0;
#X connect 49 0 1 0;
#X connect 50 0 35 0;
