#N canvas 2366 353 700 500 12;
#X obj 139 157 f;
#X obj 200 159 + 1;
#X obj 138 192 %;
#X obj 135 220 +;
#X obj 134 322 <;
#X obj 134 348 select 1;
#X obj 64 113 == 0;
#X obj 135 253 *;
#X obj 135 279 %;
#X obj 139 48 inlet;
#X obj 377 49 inlet;
#X text 376 22 reset;
#X obj 189 49 inlet;
#X obj 244 49 inlet;
#X obj 300 49 inlet;
#X text 188 19 steps;
#X text 245 17 hits;
#X text 300 20 rotation;
#X obj 135 398 outlet;
#X text 41 397 trigger out;
#X text 95 19 trigger in;
#X connect 0 0 1 0;
#X connect 0 0 2 0;
#X connect 1 0 0 1;
#X connect 2 0 3 0;
#X connect 3 0 7 0;
#X connect 4 0 5 0;
#X connect 5 0 18 0;
#X connect 6 0 0 1;
#X connect 7 0 8 0;
#X connect 8 0 4 0;
#X connect 9 0 0 0;
#X connect 10 0 6 0;
#X connect 12 0 2 1;
#X connect 12 0 8 1;
#X connect 13 0 7 1;
#X connect 13 0 4 1;
#X connect 14 0 3 1;
