#N canvas 122 435 834 500 12;
#X obj 139 157 f;
#X obj 200 159 + 1;
#X obj 135 187 %;
#X obj 133 222 +;
#X obj 134 322 <;
#X obj 134 348 select 1;
#X obj 135 253 *;
#X obj 135 279 %;
#X obj 509 40 inlet;
#X text 508 13 reset;
#X obj 189 49 inlet;
#X obj 321 45 inlet;
#X obj 394 40 inlet;
#X text 317 18 hits;
#X text 394 11 rotation;
#X obj 135 398 outlet;
#X text 41 397 trigger out;
#X obj 127 51 inlet;
#X obj 318 80 s \$0-hits;
#X obj 393 70 s \$0-rotation;
#X obj 238 265 r \$0-steps;
#X obj 241 228 r \$0-hits;
#X obj 263 167 r \$0-rotation;
#X obj 506 79 s \$0-reset;
#X obj 57 100 r \$0-reset;
#X obj 481 281 s \$0-steps;
#X obj 543 320 s \$0-hits;
#X obj 605 287 s \$0-rotation;
#X obj 481 225 r \$0-params;
#X obj 482 253 unpack int int int;
#X text 92 20 trigger in;
#X text 180 20 steps / all params;
#X obj 189 88 s \$0-params;
#X obj 271 398 outlet;
#X text 331 397 step no. out;
#X obj 64 129 == -1;
#X connect 0 0 1 0;
#X connect 0 0 2 0;
#X connect 1 0 0 1;
#X connect 2 0 3 0;
#X connect 2 0 33 0;
#X connect 3 0 6 0;
#X connect 4 0 5 0;
#X connect 5 0 15 0;
#X connect 6 0 7 0;
#X connect 7 0 4 0;
#X connect 8 0 23 0;
#X connect 10 0 32 0;
#X connect 11 0 18 0;
#X connect 12 0 19 0;
#X connect 17 0 0 0;
#X connect 20 0 7 1;
#X connect 20 0 2 1;
#X connect 21 0 4 1;
#X connect 21 0 6 1;
#X connect 22 0 3 1;
#X connect 24 0 35 0;
#X connect 28 0 29 0;
#X connect 29 0 25 0;
#X connect 29 1 26 0;
#X connect 29 2 27 0;
#X connect 35 0 0 1;
