#N canvas 1741 26 1920 1026 12;
#X obj 153 989 fsynth~;
#X obj 33 30 waveforms;
#X obj 46 79 r \$0-notes1;
#X obj 366 132 s \$0-notes1;
#X msg 343 57 69 74 79 84 89;
#X msg 360 85 69 74 79 84 89;
#X obj 71 239 vsl 12 64 0 127 0 0 empty empty empty 0 -9 0 10 -262144
-1 -1 0 0;
#X obj 736 227 lnois;
#X floatatom 735 253 5 0 0 0 - - -;
#X obj 795 225 lnois;
#X floatatom 795 248 5 0 0 0 - - -;
#X obj 848 224 lnois;
#X floatatom 848 249 5 0 0 0 - - -;
#X obj 902 222 lnois;
#X floatatom 902 249 5 0 0 0 - - -;
#X obj 230 991 fsynth~;
#X obj 308 987 fsynth~;
#X obj 381 986 fsynth~;
#X obj 41 116 unpack 0 0 0 0 0;
#X obj 773 198 unpack 0 0 0 0;
#X msg 768 148 9999 9111 11111 10210;
#X obj 465 -11 vradio 15 1 0 12 empty empty empty 0 -8 0 10 -262144
-1 -1 0;
#X obj 466 215 +;
#X floatatom 679 78 5 0 0 0 - - -;
#X obj 679 104 s \$0-root;
#X msg 679 54 60;
#X obj 677 26 loadbang;
#X obj 496 -11 vradio 15 1 0 12 empty empty empty 0 -8 0 10 -262144
-1 -1 0;
#X obj 497 215 +;
#X obj 529 -10 vradio 15 1 0 12 empty empty empty 0 -8 0 10 -262144
-1 -1 0;
#X obj 530 216 +;
#X obj 562 -8 vradio 15 1 0 12 empty empty empty 0 -8 0 10 -262144
-1 -1 0;
#X obj 563 218 +;
#X obj 478 258 pack 0 0 0 0;
#X obj 584 181 r \$0-root;
#X obj 627 235 bng 15 250 50 0 empty empty empty 17 7 0 10 -262144
-1 -1;
#X obj 151 1117 dac~ 1 2 3 4;
#X obj 37 400 s \$0-voc1;
#X obj 123 394 s \$0-voc2;
#X obj 208 395 s \$0-voc3;
#X obj 733 279 s \$0-noise0;
#X obj 793 304 s \$0-noise1;
#X obj 849 279 s \$0-noise2;
#X obj 902 302 s \$0-noise3;
#X obj 1710 85 vsl 15 128 0 8000 0 1 empty empty a 0 -9 0 10 -262144
-1 -1 3103 1;
#X obj 200 933 r \$0-par0;
#X obj 280 934 r \$0-par0;
#X obj 356 935 r \$0-par0;
#X obj 429 934 r \$0-par0;
#X obj 1685 325 s \$0-par0;
#X obj 1686 60 vradio 15 1 1 7 empty empty waveform 0 -8 0 10 -262144
-1 -1 1;
#X obj 1811 92 vsl 15 128 1 7 0 1 empty empty fold 0 -9 0 10 -262144
-1 -1 2929 1;
#X obj 1739 89 vsl 15 128 0 8000 0 1 empty empty d 0 -9 0 10 -262144
-1 -1 12700 1;
#X obj 1762 88 vsl 15 128 0 127 0 1 empty empty s 0 -9 0 10 -262144
-1 -1 0 1;
#X obj 1789 92 vsl 15 128 0 8000 0 1 empty empty r 0 -9 0 10 -262144
-1 -1 0 1;
#X obj 1594 228 bng 15 250 50 0 empty empty empty 17 7 0 10 -262144
-1 -1;
#X obj 456 989 fsynth~;
#X obj 529 992 fsynth~;
#X obj 602 987 fsynth~;
#X obj 677 986 fsynth~;
#X obj 503 933 r \$0-par0;
#X obj 577 935 r \$0-par0;
#X obj 650 935 r \$0-par0;
#X obj 725 934 r \$0-par0;
#X obj 1232 139 clock, f 8;
#X obj 1228 111 bng 15 250 50 0 empty empty empty 17 7 0 10 -262144
-1 -1;
#X msg 1249 106 120;
#X msg 1285 104 4;
#X obj 1252 68 loadbang;
#X obj 1230 208 bng 15 250 50 0 \$0-clock empty clock 17 7 0 10 -262144
-1 -1;
#X obj 1243 228 bng 15 250 50 0 \$0-clock2 empty clock2 17 7 0 10 -262144
-1 -1;
#X obj 1255 246 bng 15 250 50 0 \$0-clock4 empty clock4 17 7 0 10 -262144
-1 -1;
#X obj 1289 209 bng 15 250 50 0 \$0-clock8 empty clock8 17 7 0 10 -262144
-1 -1;
#X obj 1302 227 bng 15 250 50 0 \$0-clock16 empty clock16 17 7 0 10
-262144 -1 -1;
#X obj 1876 94 vsl 15 128 0 4 0 1 empty empty resonance 0 -9 0 10 -262144
-1 -1 0 1;
#X obj 1842 86 vsl 15 128 10 18000 0 1 empty empty cutoff 0 -9 0 10
-262144 -1 -1 0 1;
#X obj 1684 244 pack 0 0 0 0 0 0 0 0;
#X obj 43 319 makenote;
#X obj 68 207 bng 15 250 50 0 empty empty empty 17 7 0 10 -262144 -1
-1;
#X obj 96 245 vsl 12 64 0 1000 0 1 empty empty empty 0 -9 0 10 -262144
-1 -1 2400 0;
#X obj 43 356 pack 0 0;
#X obj 149 239 vsl 12 64 0 127 0 0 empty empty empty 0 -9 0 10 -262144
-1 -1 0 0;
#X obj 121 319 makenote;
#X obj 146 207 bng 15 250 50 0 empty empty empty 17 7 0 10 -262144
-1 -1;
#X obj 174 245 vsl 12 64 0 1000 0 1 empty empty empty 0 -9 0 10 -262144
-1 -1 2100 0;
#X obj 121 356 pack 0 0;
#X obj 232 237 vsl 12 64 0 127 0 0 empty empty empty 0 -9 0 10 -262144
-1 -1 0 0;
#X obj 204 317 makenote;
#X obj 229 205 bng 15 250 50 0 empty empty empty 17 7 0 10 -262144
-1 -1;
#X obj 257 243 vsl 12 64 0 1000 0 1 empty empty empty 0 -9 0 10 -262144
-1 -1 1900 0;
#X obj 204 354 pack 0 0;
#N canvas 0 22 450 278 (subpatch) 0;
#X array scale 127 float 3;
#A 0 32.2598 1 2 3 4 5 6 7 8 9 10 11 12 13 14 15 16 17 18 19 20 21
22 23 24 25 26 27 28 29 30 31 32 33 34 35 36 37 38 39 40 41 42 43 44
45 46 47 48 49 50 51 52 53 54 55 56 57 58 59 60 61 62 63 64 65 66 67
68 69 70 71 72 73 74 75 76 77 78 79 80 81 82 83 84 85 86 87 88 89 90
91 92 93 94 95 96 97 98 99 100 101 102 103 104 105 106 107 108 109
110 111 112 113 114 115 116 117 118 119 120 121 122 123 124 125 126
;
#X coords 0 127 128 -1 127 127 1 0 0;
#X restore 1778 621 graph;
#X obj 1697 726 scalemaker;
#X obj 1701 644 bng 15 250 50 0 empty empty empty 17 7 0 10 -262144
-1 -1;
#X msg 1676 580 0 1 0 1 0 0 1 0 1 0 1 0;
#X obj 397 461 f;
#X obj 440 464 + 1;
#X obj 398 439 bng 15 250 50 0 empty empty empty 17 7 0 10 -262144
-1 -1;
#X obj 397 493 % 8;
#X obj 481 583 route 0 1 2 3 4 5 6 7;
#X obj 524 381 vsl 12 64 0 127 0 0 empty empty vel 0 -9 0 10 -262144
-1 -1 6300 0;
#X obj 501 463 makenote;
#X obj 521 349 bng 15 250 50 0 empty empty empty 17 7 0 10 -262144
-1 -1;
#X obj 549 387 vsl 12 64 0 1000 0 1 empty empty dur 0 -9 0 10 -262144
-1 -1 100 0;
#X obj 496 498 pack 0 0 0;
#X obj 610 794 s \$0-voc7;
#X obj 592 769 s \$0-voc6;
#X obj 572 743 s \$0-voc5;
#X obj 553 720 s \$0-voc4;
#X obj 534 696 s \$0-voc3;
#X obj 514 670 s \$0-voc2;
#X obj 498 645 s \$0-voc1;
#X obj 480 620 s \$0-voc0;
#X obj 153 960 r \$0-voc0;
#X obj 231 959 r \$0-voc1;
#X obj 310 959 r \$0-voc2;
#X obj 384 960 r \$0-voc3;
#X obj 456 960 r \$0-voc4;
#X obj 528 960 r \$0-voc5;
#X obj 604 959 r \$0-voc6;
#X obj 677 960 r \$0-voc7;
#X obj 574 537 print;
#X msg 1673 545 1 0 1 0 1 1 0 1 0 1 0 1;
#X obj 910 480 random 1000;
#X obj 913 512 / 1000;
#X floatatom 792 512 5 0 0 2 min - -;
#X floatatom 860 512 5 0 0 2 max - -;
#X text 1192 29 CLOCK;
#X text 1195 63 (tic toc);
#X text 1587 21 8 VOICE-SYNTH CONTROLS;
#X text 148 899 8-VOICE SYNTH;
#X text 571 410 NOTE GENERATION;
#X obj 827 426 bng 15 250 50 0 empty empty empty 17 7 0 10 -262144
-1 -1;
#X obj 796 575 lerp;
#X obj 440 408 +;
#X msg 447 376 60;
#X msg 790 471 -0.1;
#X msg 840 472 0.1;
#X obj 522 311 r \$0-clock;
#X obj 1689 794 hsl 128 15 0 127 0 0 empty empty empty -2 -8 0 10 -262144
-1 -1 73 1;
#X obj 1308 173 s \$0-cphase;
#X obj 1523 705 r \$0-cphase;
#X obj 1793 -7 r \$0-noise0;
#X obj 1804 26 * 7;
#X connect 0 0 36 0;
#X connect 2 0 18 0;
#X connect 4 0 3 0;
#X connect 5 0 3 0;
#X connect 6 0 77 1;
#X connect 7 0 8 0;
#X connect 8 0 40 0;
#X connect 9 0 10 0;
#X connect 10 0 41 0;
#X connect 11 0 12 0;
#X connect 12 0 42 0;
#X connect 13 0 14 0;
#X connect 14 0 43 0;
#X connect 15 0 36 1;
#X connect 16 0 36 2;
#X connect 17 0 36 3;
#X connect 18 0 77 0;
#X connect 18 0 78 0;
#X connect 18 1 82 0;
#X connect 18 1 83 0;
#X connect 18 2 87 0;
#X connect 18 2 88 0;
#X connect 19 0 7 0;
#X connect 19 1 9 0;
#X connect 19 2 11 0;
#X connect 19 3 13 0;
#X connect 20 0 19 0;
#X connect 21 0 22 0;
#X connect 21 0 35 0;
#X connect 22 0 33 0;
#X connect 23 0 24 0;
#X connect 25 0 23 0;
#X connect 26 0 25 0;
#X connect 26 0 20 0;
#X connect 27 0 28 0;
#X connect 27 0 35 0;
#X connect 28 0 33 1;
#X connect 29 0 30 0;
#X connect 29 0 35 0;
#X connect 30 0 33 2;
#X connect 31 0 32 0;
#X connect 31 0 35 0;
#X connect 32 0 33 3;
#X connect 33 0 3 0;
#X connect 34 0 22 1;
#X connect 34 0 28 1;
#X connect 34 0 30 1;
#X connect 34 0 32 1;
#X connect 35 0 33 0;
#X connect 44 0 55 0;
#X connect 44 0 76 1;
#X connect 45 0 0 1;
#X connect 46 0 15 1;
#X connect 47 0 16 1;
#X connect 48 0 17 1;
#X connect 50 0 55 0;
#X connect 50 0 76 0;
#X connect 51 0 55 0;
#X connect 51 0 76 5;
#X connect 52 0 55 0;
#X connect 52 0 76 2;
#X connect 53 0 55 0;
#X connect 53 0 76 3;
#X connect 54 0 55 0;
#X connect 54 0 76 4;
#X connect 55 0 76 0;
#X connect 56 0 36 0;
#X connect 57 0 36 1;
#X connect 58 0 36 2;
#X connect 59 0 36 3;
#X connect 60 0 56 1;
#X connect 61 0 57 1;
#X connect 62 0 58 1;
#X connect 63 0 59 1;
#X connect 64 0 69 0;
#X connect 64 1 70 0;
#X connect 64 2 71 0;
#X connect 64 3 72 0;
#X connect 64 4 73 0;
#X connect 64 5 140 0;
#X connect 65 0 64 0;
#X connect 66 0 64 1;
#X connect 67 0 64 2;
#X connect 68 0 66 0;
#X connect 68 0 67 0;
#X connect 68 0 65 0;
#X connect 74 0 76 7;
#X connect 74 0 55 0;
#X connect 75 0 76 6;
#X connect 75 0 55 0;
#X connect 76 0 49 0;
#X connect 77 0 80 0;
#X connect 77 1 80 1;
#X connect 78 0 79 0;
#X connect 78 0 6 0;
#X connect 79 0 77 2;
#X connect 80 0 37 0;
#X connect 81 0 82 1;
#X connect 82 0 85 0;
#X connect 82 1 85 1;
#X connect 83 0 84 0;
#X connect 83 0 81 0;
#X connect 84 0 82 2;
#X connect 85 0 38 0;
#X connect 86 0 87 1;
#X connect 87 0 90 0;
#X connect 87 1 90 1;
#X connect 88 0 89 0;
#X connect 88 0 86 0;
#X connect 89 0 87 2;
#X connect 90 0 39 0;
#X connect 93 0 92 0;
#X connect 94 0 92 0;
#X connect 95 0 96 0;
#X connect 95 0 98 0;
#X connect 96 0 95 1;
#X connect 97 0 95 0;
#X connect 98 0 104 0;
#X connect 99 0 112 0;
#X connect 99 1 111 0;
#X connect 99 2 110 0;
#X connect 99 3 109 0;
#X connect 99 4 108 0;
#X connect 99 5 107 0;
#X connect 99 6 106 0;
#X connect 99 7 105 0;
#X connect 100 0 101 1;
#X connect 101 0 104 1;
#X connect 101 1 104 2;
#X connect 102 0 103 0;
#X connect 102 0 100 0;
#X connect 102 0 135 0;
#X connect 103 0 101 2;
#X connect 104 0 99 0;
#X connect 104 0 121 0;
#X connect 113 0 0 0;
#X connect 114 0 15 0;
#X connect 115 0 16 0;
#X connect 116 0 17 0;
#X connect 117 0 56 0;
#X connect 118 0 57 0;
#X connect 119 0 58 0;
#X connect 120 0 59 0;
#X connect 122 0 92 0;
#X connect 123 0 124 0;
#X connect 124 0 133 2;
#X connect 125 0 133 0;
#X connect 126 0 133 1;
#X connect 132 0 136 0;
#X connect 132 0 137 0;
#X connect 132 0 123 0;
#X connect 133 0 134 1;
#X connect 134 0 101 0;
#X connect 134 0 97 0;
#X connect 135 0 134 0;
#X connect 135 0 132 0;
#X connect 136 0 125 0;
#X connect 137 0 126 0;
#X connect 138 0 102 0;
#X connect 141 0 139 0;
#X connect 142 0 143 0;
#X connect 143 0 51 0;
