#N canvas 503 317 1266 683 12;
#X obj 67 576 outlet~;
#X text 164 105 Simple synth with a folding feature;
#X obj 78 440 *~ 0.5;
#X obj 73 475 *~;
#X obj 69 531 bob~;
#X obj 159 512 hsl 128 15 180 18000 1 1 empty \$0-cutoff cutoff -2
-8 0 10 -204786 -1 -1 12700 1;
#X obj 161 544 hsl 128 15 0 4 0 1 empty \$0-resonance resonance -2
-8 0 10 -204786 -1 -1 0 1;
#X obj 162 236 hsl 128 15 1 7 0 1 empty \$0-fold fold -2 -8 0 10 -261682
-1 -1 3900 1;
#X obj 353 216 vsl 15 128 0 8000 0 0 empty \$0-a A 0 -9 0 10 -262144
-1 -1 0 1;
#X obj 396 213 vsl 15 128 0 8000 0 1 empty \$0-d D 0 -9 0 10 -262144
-1 -1 2400 1;
#X obj 433 209 vsl 15 128 0 1 0 0 empty \$0-s S 0 -9 0 10 -262144 -1
-1 12700 1;
#X obj 468 203 vsl 15 128 0 8000 0 1 empty \$0-r R 0 -9 0 10 -262144
-1 -1 0 1;
#X obj 184 321 loadbang;
#X msg 182 367 1;
#X obj 90 506 - 180;
#X obj 81 154 mtof;
#X obj 525 16 inlet;
#X obj 78 291 wvfold~;
#X floatatom 568 228 5 0 0 0 - - -;
#X obj 79 192 waveformosc~;
#X text 569 15 notes;
#X obj 685 14 inlet;
#X text 733 11 parameters;
#X text 694 50 TODO: for now \, only waveform is supported. Add other
parameters as list.;
#X obj 216 468 c_adsr, f 10;
#X obj 522 108 unpack 0 0;
#X text 713 192 waveform \, a \, d \, s \, r;
#X obj 740 267 s \$0-a;
#X obj 801 271 s \$0-d;
#X obj 939 282 s \$0-r;
#X obj 878 278 s \$0-s;
#X obj 752 168 unpack 0 0 0 0 0 0;
#X obj 998 283 s \$0-fold;
#X obj 980 164 print;
#X obj 218 428 t a a;
#X obj 575 147 / 127 * 100;
#X obj 1082 286 s \$0-cof;
#X obj 1156 285 s \$0-res;
#X connect 2 0 3 0;
#X connect 3 0 4 0;
#X connect 4 0 0 0;
#X connect 5 0 14 0;
#X connect 6 0 4 2;
#X connect 7 0 17 1;
#X connect 8 0 24 2;
#X connect 9 0 24 3;
#X connect 10 0 24 4;
#X connect 11 0 24 5;
#X connect 12 0 13 0;
#X connect 14 0 4 1;
#X connect 15 0 19 0;
#X connect 16 0 25 0;
#X connect 17 0 2 0;
#X connect 18 0 34 0;
#X connect 19 0 17 0;
#X connect 21 0 31 0;
#X connect 21 0 33 0;
#X connect 24 0 3 1;
#X connect 25 0 15 0;
#X connect 25 1 35 0;
#X connect 31 0 19 1;
#X connect 31 1 27 0;
#X connect 31 2 28 0;
#X connect 31 3 30 0;
#X connect 31 4 29 0;
#X connect 31 5 32 0;
#X connect 34 0 24 0;
#X connect 34 1 24 1;
#X connect 35 0 18 0;
