#N canvas 313 306 1123 683 12;
#X obj 67 576 outlet~;
#X text 164 105 Simple synth with a folding feature;
#X obj 78 440 *~ 0.5;
#X obj 73 475 *~;
#X obj 69 531 bob~;
#X obj 159 512 hsl 128 15 180 18000 1 1 empty empty cutoff -2 -8 0
10 -204786 -1 -1 5100 1;
#X obj 161 544 hsl 128 15 0 4 0 1 empty empty resonance -2 -8 0 10
-204786 -1 -1 3300 1;
#X obj 162 236 hsl 128 15 1 7 0 1 empty \$0-fold fold -2 -8 0 10 -261682
-1 -1 2349 1;
#X obj 353 216 vsl 15 128 0 10000 0 0 empty \$0-a A 0 -9 0 10 -262144
-1 -1 0 1;
#X obj 396 213 vsl 15 128 0 10000 0 1 empty \$0-d D 0 -9 0 10 -262144
-1 -1 2800 1;
#X obj 433 209 vsl 15 128 0 1 0 0 empty \$0-s S 0 -9 0 10 -262144 -1
-1 12700 1;
#X obj 468 203 vsl 15 128 0 10000 0 1 empty \$0-r R 0 -9 0 10 -262144
-1 -1 0 1;
#X obj 184 321 loadbang;
#X msg 182 367 1;
#X obj 90 506 - 180;
#X obj 81 154 mtof;
#X obj 525 16 inlet;
#X floatatom 538 217 5 0 0 0 - - -;
#X obj 78 291 wvfold~;
#X floatatom 592 189 5 0 0 0 - - -;
#X obj 79 192 waveformosc~;
#X text 569 15 notes;
#X obj 685 14 inlet;
#X text 733 11 parameters;
#X text 694 50 TODO: for now \, only waveform is supported. Add other
parameters as list.;
#X obj 216 468 c_adsr, f 10;
#X obj 522 108 unpack 0 0;
#X text 713 192 waveform \, a \, d \, s \, r;
#X obj 740 267 s \$0-a;
#X obj 801 271 s \$0-d;
#X obj 939 282 s \$0-r;
#X obj 878 278 s \$0-s;
#X obj 752 168 unpack 0 0 0 0 0 0;
#X obj 998 283 s \$0-fold;
#X connect 2 0 3 0;
#X connect 3 0 4 0;
#X connect 4 0 0 0;
#X connect 5 0 14 0;
#X connect 6 0 4 2;
#X connect 7 0 18 1;
#X connect 8 0 25 2;
#X connect 9 0 25 3;
#X connect 10 0 25 4;
#X connect 11 0 25 5;
#X connect 12 0 13 0;
#X connect 13 0 25 1;
#X connect 14 0 4 1;
#X connect 15 0 20 0;
#X connect 16 0 26 0;
#X connect 18 0 2 0;
#X connect 20 0 18 0;
#X connect 22 0 32 0;
#X connect 25 0 3 1;
#X connect 26 0 15 0;
#X connect 26 0 17 0;
#X connect 26 1 25 0;
#X connect 26 1 19 0;
#X connect 32 0 20 1;
#X connect 32 1 28 0;
#X connect 32 2 29 0;
#X connect 32 3 31 0;
#X connect 32 4 30 0;
#X connect 32 5 33 0;
