#N canvas 0 25 1440 847 12;
#X obj 32 178 bng 15 250 50 0 empty empty empty 17 7 0 10 -262144 -1
-1;
#X obj 77 200 + 1;
#X obj 32 197 f;
#X floatatom 31 254 5 0 0 0 - - -;
#X obj 31 224 % 4;
#X obj 29 282 select 0 1 2 3;
#X obj 28 315 bng 15 250 50 0 empty empty empty 17 7 0 10 -262144 -1
-1;
#X obj 51 314 bng 15 250 50 0 empty empty empty 17 7 0 10 -262144 -1
-1;
#X obj 78 316 bng 15 250 50 0 empty empty empty 17 7 0 10 -262144 -1
-1;
#X obj 103 318 bng 15 250 50 0 empty empty empty 17 7 0 10 -262144
-1 -1;
#X obj 1073 647 dac~ 1 2 3 4;
#X obj 33 25 vsl 15 128 0 1 0 1 vol empty vol 0 -9 0 10 -262144 -1
-1 8890 1;
#X obj 918 547 *~;
#X obj 1027 550 *~;
#X obj 1138 542 *~;
#X obj 1282 548 *~;
#X msg 938 45 4;
#X floatatom 892 108 5 0 0 0 - - -;
#X obj 900 188 + 69;
#X floatatom 1036 108 5 0 0 0 - - -;
#X obj 1044 188 + 69;
#X floatatom 1161 112 5 0 0 0 - - -;
#X obj 1169 192 + 69;
#X floatatom 1305 112 5 0 0 0 - - -;
#X obj 1313 192 + 69;
#X msg 1082 45 5;
#X msg 1207 49 6;
#X msg 1351 49 7;
#X text 951 -58 PITCH;
#X text 173 356 TRIGGER;
#X text 854 471 SYNTH;
#X obj 199 -40 tgl 15 1 empty empty empty 17 7 0 10 -262144 -1 -1 1
1;
#X msg 24 652 48;
#X msg 66 654 50;
#X msg 82 471 32;
#X obj 28 598 select 0 1 2 3;
#X msg 152 654 50;
#X msg 110 652 52;
#X obj 82 525 / 4;
#X obj 27 553 /;
#X obj 93 3 tgl 15 1 empty empty empty 17 7 0 10 -262144 -1 -1 1 1
;
#X obj 89 440 tgl 15 1 empty empty empty 17 7 0 10 -262144 -1 -1 1
1;
#X obj 953 23 tgl 15 1 empty empty empty 17 7 0 10 -262144 -1 -1 1
1;
#X obj 1095 24 tgl 15 1 empty empty empty 17 7 0 10 -262144 -1 -1 1
1;
#X obj 1222 27 tgl 15 1 empty empty empty 17 7 0 10 -262144 -1 -1 1
1;
#X obj 1364 28 tgl 15 1 empty empty empty 17 7 0 10 -262144 -1 -1 1
1;
#X obj 892 72 counter;
#X obj 1036 72 counter;
#X obj 1161 76 counter;
#X obj 1305 76 counter;
#X obj 918 474 beep~;
#X obj 1027 474 beep~;
#X obj 1143 468 beep~;
#X obj 1282 470 beep~;
#X obj 26 501 counter;
#X obj 198 29 clock2;
#X obj 197 241 s t0;
#X obj 346 238 s t1;
#X obj 493 241 s t2;
#X obj 634 241 s t3;
#X obj 894 20 r t0;
#X obj 1038 20 r t1;
#X obj 1163 24 r t2;
#X obj 1307 24 r t3;
#X obj 943 138 r root;
#X obj 1085 141 r root;
#X obj 1212 146 r root;
#X obj 1359 145 r root;
#X obj 938 520 r vol;
#X obj 1042 522 r vol;
#X obj 1153 512 r vol;
#X obj 1295 519 r vol;
#X obj 29 688 s root;
#X obj 918 419 r t0;
#X obj 1027 419 r t1;
#X obj 1141 415 r t2;
#X obj 1281 416 r t3;
#X obj 29 433 r t0;
#X obj 896 260 s \$0-v0;
#X obj 1043 259 s \$0-v1;
#X obj 1170 259 s \$0-v2;
#X obj 1312 259 s \$0-v3;
#X obj 949 445 r \$0-v0;
#X obj 1060 447 r \$0-v1;
#X obj 1174 439 r \$0-v2;
#X obj 1314 440 r \$0-v3;
#X msg 89 35 0.7;
#X obj 291 505 lnois;
#X floatatom 291 538 5 0 0 0 - - -;
#X floatatom 292 465 5 0 0 0 - - -;
#X floatatom 290 643 5 0 0 0 - - -;
#X obj 377 507 lnois;
#X floatatom 377 540 5 0 0 0 - - -;
#X floatatom 378 467 5 0 0 0 - - -;
#X floatatom 381 644 5 0 0 0 - - -;
#X obj 466 506 lnois;
#X floatatom 466 539 5 0 0 0 - - -;
#X floatatom 467 466 5 0 0 0 - - -;
#X floatatom 470 646 5 0 0 0 - - -;
#X obj 552 508 lnois;
#X floatatom 552 541 5 0 0 0 - - -;
#X floatatom 553 468 5 0 0 0 - - -;
#X floatatom 557 646 5 0 0 0 - - -;
#X obj 292 426 tgl 15 1 empty empty empty 17 7 0 10 -262144 -1 -1 10000
10000;
#X obj 898 141 * 7;
#X obj 1042 141 * 7;
#X obj 1167 145 * 7;
#X obj 1311 145 * 7;
#X obj 196 177 eucrth;
#X obj 321 283 hradio 15 1 0 16 empty \$0-seq0 empty 0 -8 0 10 -262144
-1 -1 1;
#X obj 321 306 hradio 15 1 0 16 empty \$0-seq1 empty 0 -8 0 10 -262144
-1 -1 0;
#X obj 321 329 hradio 15 1 0 16 empty \$0-seq2 empty 0 -8 0 10 -262144
-1 -1 1;
#X obj 322 352 hradio 15 1 0 16 empty \$0-seq3 empty 0 -8 0 10 -262144
-1 -1 4;
#X obj 233 207 s \$0-seq0;
#X obj 197 211 bng 15 250 50 0 empty empty empty 17 7 0 10 -262144
-1 -1;
#X obj 197 60 s \$0-clock0;
#X obj 197 101 r \$0-clock0;
#X obj 348 177 eucrth;
#X obj 349 211 bng 15 250 50 0 empty empty empty 17 7 0 10 -262144
-1 -1;
#X obj 353 101 r \$0-clock0;
#X obj 493 178 eucrth;
#X obj 494 212 bng 15 250 50 0 empty empty empty 17 7 0 10 -262144
-1 -1;
#X obj 498 102 r \$0-clock0;
#X obj 633 180 eucrth;
#X obj 634 214 bng 15 250 50 0 empty empty empty 17 7 0 10 -262144
-1 -1;
#X obj 638 104 r \$0-clock0;
#X obj 385 207 s \$0-seq1;
#X obj 530 208 s \$0-seq2;
#X obj 670 210 s \$0-seq3;
#X obj 338 -26 bng 15 250 50 0 \$0-reset empty reset_sequencers 17
7 0 10 -262144 -1 -1;
#X obj 236 154 r \$0-reset;
#X obj 387 149 r \$0-reset;
#X obj 532 150 r \$0-reset;
#X obj 673 155 r \$0-reset;
#X text 807 201 detune;
#X text 451 409 linear randomness generators;
#X obj 290 675 s \$0-lnois0;
#X obj 382 680 s \$0-lnois1;
#X obj 476 688 s \$0-lnois2;
#X obj 558 681 s \$0-lnois3;
#X obj 896 229 +;
#X obj 937 208 r \$0-lnois0;
#X obj 1043 229 +;
#X obj 1172 227 +;
#X obj 1314 226 +;
#X msg 254 -10 1;
#X obj 1084 208 r \$0-lnois1;
#X obj 1213 206 r \$0-lnois2;
#X obj 1355 205 r \$0-lnois3;
#X obj 556 576 * 0.25;
#X obj 557 611 - 0.125;
#X obj 470 572 * 0.25;
#X obj 470 605 - 0.125;
#X obj 381 573 * 0.25;
#X obj 381 606 - 0.125;
#X obj 295 571 * 0.25;
#X obj 294 600 - 0.125;
#X msg 212 -12 30;
#X msg 209 130 5 1 0;
#X msg 361 125 6 1 0;
#X msg 508 127 7 1 0;
#X msg 645 132 8 1 0;
#X connect 0 0 2 0;
#X connect 1 0 2 1;
#X connect 2 0 1 0;
#X connect 2 0 4 0;
#X connect 3 0 5 0;
#X connect 4 0 3 0;
#X connect 5 0 6 0;
#X connect 5 1 7 0;
#X connect 5 2 8 0;
#X connect 5 3 9 0;
#X connect 12 0 10 0;
#X connect 13 0 10 1;
#X connect 14 0 10 2;
#X connect 14 0 10 0;
#X connect 15 0 10 3;
#X connect 15 0 10 1;
#X connect 16 0 46 1;
#X connect 17 0 104 0;
#X connect 18 0 140 0;
#X connect 19 0 105 0;
#X connect 20 0 142 0;
#X connect 21 0 106 0;
#X connect 22 0 143 0;
#X connect 23 0 107 0;
#X connect 24 0 144 0;
#X connect 25 0 47 1;
#X connect 26 0 48 1;
#X connect 27 0 49 1;
#X connect 31 0 55 0;
#X connect 31 0 157 0;
#X connect 31 0 145 0;
#X connect 31 0 129 0;
#X connect 32 0 72 0;
#X connect 33 0 72 0;
#X connect 34 0 38 0;
#X connect 34 0 54 1;
#X connect 35 0 32 0;
#X connect 35 1 33 0;
#X connect 35 2 37 0;
#X connect 35 3 36 0;
#X connect 36 0 72 0;
#X connect 37 0 72 0;
#X connect 38 0 39 1;
#X connect 39 0 35 0;
#X connect 40 0 86 0;
#X connect 41 0 34 0;
#X connect 42 0 16 0;
#X connect 43 0 25 0;
#X connect 44 0 26 0;
#X connect 45 0 27 0;
#X connect 46 0 17 0;
#X connect 47 0 19 0;
#X connect 48 0 21 0;
#X connect 49 0 23 0;
#X connect 50 0 12 0;
#X connect 51 0 13 0;
#X connect 52 0 14 0;
#X connect 53 0 15 0;
#X connect 54 0 39 0;
#X connect 55 0 115 0;
#X connect 60 0 46 0;
#X connect 61 0 47 0;
#X connect 62 0 48 0;
#X connect 63 0 49 0;
#X connect 64 0 18 1;
#X connect 65 0 20 1;
#X connect 66 0 22 1;
#X connect 67 0 24 1;
#X connect 68 0 12 1;
#X connect 69 0 13 1;
#X connect 70 0 14 1;
#X connect 71 0 15 1;
#X connect 73 0 50 0;
#X connect 74 0 51 0;
#X connect 75 0 52 0;
#X connect 76 0 53 0;
#X connect 77 0 54 0;
#X connect 82 0 50 1;
#X connect 83 0 51 1;
#X connect 84 0 52 1;
#X connect 85 0 53 1;
#X connect 86 0 11 0;
#X connect 87 0 88 0;
#X connect 88 0 155 0;
#X connect 89 0 87 0;
#X connect 90 0 136 0;
#X connect 91 0 92 0;
#X connect 92 0 153 0;
#X connect 93 0 91 0;
#X connect 94 0 137 0;
#X connect 95 0 96 0;
#X connect 96 0 151 0;
#X connect 97 0 95 0;
#X connect 98 0 138 0;
#X connect 99 0 100 0;
#X connect 100 0 149 0;
#X connect 101 0 99 0;
#X connect 102 0 139 0;
#X connect 103 0 89 0;
#X connect 103 0 93 0;
#X connect 103 0 97 0;
#X connect 103 0 101 0;
#X connect 104 0 18 0;
#X connect 105 0 20 0;
#X connect 106 0 22 0;
#X connect 107 0 24 0;
#X connect 108 0 114 0;
#X connect 108 1 113 0;
#X connect 114 0 56 0;
#X connect 116 0 108 0;
#X connect 117 0 118 0;
#X connect 117 1 126 0;
#X connect 118 0 57 0;
#X connect 119 0 117 0;
#X connect 120 0 121 0;
#X connect 120 1 127 0;
#X connect 121 0 58 0;
#X connect 122 0 120 0;
#X connect 123 0 124 0;
#X connect 123 1 128 0;
#X connect 124 0 59 0;
#X connect 125 0 123 0;
#X connect 130 0 108 4;
#X connect 131 0 117 4;
#X connect 132 0 120 4;
#X connect 133 0 123 4;
#X connect 140 0 78 0;
#X connect 141 0 140 1;
#X connect 142 0 79 0;
#X connect 143 0 80 0;
#X connect 144 0 81 0;
#X connect 145 0 55 2;
#X connect 146 0 142 1;
#X connect 147 0 143 1;
#X connect 148 0 144 1;
#X connect 149 0 150 0;
#X connect 150 0 102 0;
#X connect 151 0 152 0;
#X connect 152 0 98 0;
#X connect 153 0 154 0;
#X connect 154 0 94 0;
#X connect 155 0 156 0;
#X connect 156 0 90 0;
#X connect 157 0 55 1;
#X connect 158 0 108 1;
#X connect 159 0 117 1;
#X connect 160 0 120 1;
#X connect 161 0 123 1;
