#N canvas 55 51 1319 779 12;
#X obj 32 178 bng 15 250 50 0 empty empty empty 17 7 0 10 -262144 -1
-1;
#X obj 77 200 + 1;
#X obj 32 197 f;
#X floatatom 31 254 5 0 0 0 - - -;
#X obj 31 224 % 4;
#X obj 29 282 select 0 1 2 3;
#X obj 28 315 bng 15 250 50 0 empty empty empty 17 7 0 10 -262144 -1
-1;
#X obj 51 314 bng 15 250 50 0 empty empty empty 17 7 0 10 -262144 -1
-1;
#X obj 78 316 bng 15 250 50 0 empty empty empty 17 7 0 10 -262144 -1
-1;
#X obj 103 318 bng 15 250 50 0 empty empty empty 17 7 0 10 -262144
-1 -1;
#X obj 914 647 dac~ 1 2 3 4;
#X obj 33 25 vsl 15 128 0 1 0 1 vol empty vol 0 -9 0 10 -262144 -1
-1 8890 1;
#X obj 759 547 *~;
#X obj 868 550 *~;
#X obj 979 542 *~;
#X obj 1123 548 *~;
#X msg 779 45 4;
#X floatatom 733 108 5 0 0 0 - - -;
#X obj 741 188 + 69;
#X floatatom 877 108 5 0 0 0 - - -;
#X obj 885 188 + 69;
#X floatatom 1002 112 5 0 0 0 - - -;
#X obj 1010 192 + 69;
#X floatatom 1146 112 5 0 0 0 - - -;
#X obj 1154 192 + 69;
#X msg 923 45 5;
#X msg 1048 49 6;
#X msg 1192 49 7;
#X text 951 -58 PITCH;
#X text 173 356 TRIGGER;
#X text 695 471 SYNTH;
#X obj 182 84 tgl 15 1 empty empty empty 17 7 0 10 -262144 -1 -1 1
1;
#X obj 178 269 bng 15 250 50 0 empty empty empty 17 7 0 10 -262144
-1 -1;
#X obj 183 39 tgl 15 1 empty empty empty 17 7 0 10 -262144 -1 -1 1
1;
#X msg 24 652 48;
#X msg 66 654 50;
#X msg 82 471 32;
#X obj 28 598 select 0 1 2 3;
#X msg 152 654 50;
#X msg 110 652 52;
#X obj 82 525 / 4;
#X obj 27 553 /;
#X obj 93 3 tgl 15 1 empty empty empty 17 7 0 10 -262144 -1 -1 1 1
;
#X obj 89 440 tgl 15 1 empty empty empty 17 7 0 10 -262144 -1 -1 1
1;
#X obj 794 23 tgl 15 1 empty empty empty 17 7 0 10 -262144 -1 -1 1
1;
#X obj 936 24 tgl 15 1 empty empty empty 17 7 0 10 -262144 -1 -1 1
1;
#X obj 1063 27 tgl 15 1 empty empty empty 17 7 0 10 -262144 -1 -1 1
1;
#X obj 1205 28 tgl 15 1 empty empty empty 17 7 0 10 -262144 -1 -1 1
1;
#X obj 733 72 counter;
#X obj 877 72 counter;
#X obj 1002 76 counter;
#X obj 1146 76 counter;
#X obj 759 474 beep~;
#X obj 868 474 beep~;
#X obj 984 468 beep~;
#X obj 1123 470 beep~;
#X obj 26 501 counter;
#X obj 178 230 clock2;
#X obj 176 318 s t0;
#X obj 259 315 s t1;
#X obj 332 311 s t2;
#X obj 414 311 s t3;
#X obj 735 20 r t0;
#X obj 879 20 r t1;
#X obj 1004 24 r t2;
#X obj 1148 24 r t3;
#X obj 784 138 r root;
#X obj 926 141 r root;
#X obj 1053 146 r root;
#X obj 1200 145 r root;
#X obj 779 520 r vol;
#X obj 883 522 r vol;
#X obj 994 512 r vol;
#X obj 1136 519 r vol;
#X obj 29 688 s root;
#X obj 759 419 r t0;
#X obj 868 419 r t1;
#X obj 982 415 r t2;
#X obj 1122 416 r t3;
#X obj 29 433 r t0;
#X obj 748 228 s \$0-v0;
#X obj 884 228 s \$0-v1;
#X obj 1015 232 s \$0-v2;
#X obj 1151 232 s \$0-v3;
#X obj 790 445 r \$0-v0;
#X obj 901 447 r \$0-v1;
#X obj 1015 439 r \$0-v2;
#X obj 1155 440 r \$0-v3;
#X msg 89 35 0.7;
#X obj 291 505 lnois;
#X floatatom 291 538 5 0 0 0 - - -;
#X floatatom 292 465 5 0 0 0 - - -;
#X obj 297 611 s \$0-bpm0;
#X obj 197 155 r \$0-bpm0;
#X obj 196 192 +;
#X obj 295 571 * 120;
#X msg 213 118 0;
#X msg 229 193 1;
#X floatatom 288 642 5 0 0 0 - - -;
#X obj 377 507 lnois;
#X floatatom 377 540 5 0 0 0 - - -;
#X floatatom 378 467 5 0 0 0 - - -;
#X obj 381 573 * 120;
#X floatatom 374 644 5 0 0 0 - - -;
#X obj 466 506 lnois;
#X floatatom 466 539 5 0 0 0 - - -;
#X floatatom 467 466 5 0 0 0 - - -;
#X obj 470 572 * 120;
#X floatatom 463 643 5 0 0 0 - - -;
#X obj 552 508 lnois;
#X floatatom 552 541 5 0 0 0 - - -;
#X floatatom 553 468 5 0 0 0 - - -;
#X obj 556 574 * 120;
#X floatatom 549 645 5 0 0 0 - - -;
#X obj 383 613 s \$0-bpm1;
#X obj 472 612 s \$0-bpm2;
#X obj 558 614 s \$0-bpm3;
#X obj 292 426 tgl 15 1 empty empty empty 17 7 0 10 -262144 -1 -1 10000
10000;
#X obj 275 84 tgl 15 1 empty empty empty 17 7 0 10 -262144 -1 -1 1
1;
#X obj 271 269 bng 15 250 50 0 empty empty empty 17 7 0 10 -262144
-1 -1;
#X obj 271 230 clock2;
#X obj 289 192 +;
#X msg 306 118 0;
#X msg 322 193 1;
#X obj 380 87 tgl 15 1 empty empty empty 17 7 0 10 -262144 -1 -1 1
1;
#X obj 376 272 bng 15 250 50 0 empty empty empty 17 7 0 10 -262144
-1 -1;
#X obj 376 233 clock2;
#X obj 394 195 +;
#X msg 411 121 0;
#X msg 427 196 1;
#X obj 478 86 tgl 15 1 empty empty empty 17 7 0 10 -262144 -1 -1 1
1;
#X obj 474 271 bng 15 250 50 0 empty empty empty 17 7 0 10 -262144
-1 -1;
#X obj 474 232 clock2;
#X obj 492 194 +;
#X msg 509 120 0;
#X msg 525 195 1;
#X obj 290 155 r \$0-bpm1;
#X obj 395 158 r \$0-bpm2;
#X obj 493 157 r \$0-bpm3;
#X text 542 418 BPM;
#X obj 739 141 * 7;
#X obj 883 141 * 7;
#X obj 1008 145 * 7;
#X obj 1152 145 * 7;
#X connect 0 0 2 0;
#X connect 1 0 2 1;
#X connect 2 0 1 0;
#X connect 2 0 4 0;
#X connect 3 0 5 0;
#X connect 4 0 3 0;
#X connect 5 0 6 0;
#X connect 5 1 7 0;
#X connect 5 2 8 0;
#X connect 5 3 9 0;
#X connect 12 0 10 0;
#X connect 13 0 10 1;
#X connect 14 0 10 2;
#X connect 14 0 10 0;
#X connect 15 0 10 3;
#X connect 15 0 10 1;
#X connect 16 0 48 1;
#X connect 17 0 140 0;
#X connect 18 0 80 0;
#X connect 19 0 141 0;
#X connect 20 0 81 0;
#X connect 21 0 142 0;
#X connect 22 0 82 0;
#X connect 23 0 143 0;
#X connect 24 0 83 0;
#X connect 25 0 49 1;
#X connect 26 0 50 1;
#X connect 27 0 51 1;
#X connect 31 0 96 0;
#X connect 31 0 57 0;
#X connect 32 0 58 0;
#X connect 33 0 31 0;
#X connect 33 0 118 0;
#X connect 33 0 130 0;
#X connect 33 0 124 0;
#X connect 34 0 74 0;
#X connect 35 0 74 0;
#X connect 36 0 40 0;
#X connect 36 0 56 1;
#X connect 37 0 34 0;
#X connect 37 1 35 0;
#X connect 37 2 39 0;
#X connect 37 3 38 0;
#X connect 38 0 74 0;
#X connect 39 0 74 0;
#X connect 40 0 41 1;
#X connect 41 0 37 0;
#X connect 42 0 88 0;
#X connect 43 0 36 0;
#X connect 44 0 16 0;
#X connect 45 0 25 0;
#X connect 46 0 26 0;
#X connect 47 0 27 0;
#X connect 48 0 17 0;
#X connect 49 0 19 0;
#X connect 50 0 21 0;
#X connect 51 0 23 0;
#X connect 52 0 12 0;
#X connect 53 0 13 0;
#X connect 54 0 14 0;
#X connect 55 0 15 0;
#X connect 56 0 41 0;
#X connect 57 0 32 0;
#X connect 62 0 48 0;
#X connect 63 0 49 0;
#X connect 64 0 50 0;
#X connect 65 0 51 0;
#X connect 66 0 18 1;
#X connect 67 0 20 1;
#X connect 68 0 22 1;
#X connect 69 0 24 1;
#X connect 70 0 12 1;
#X connect 71 0 13 1;
#X connect 72 0 14 1;
#X connect 73 0 15 1;
#X connect 75 0 52 0;
#X connect 76 0 53 0;
#X connect 77 0 54 0;
#X connect 78 0 55 0;
#X connect 79 0 56 0;
#X connect 84 0 52 1;
#X connect 85 0 53 1;
#X connect 86 0 54 1;
#X connect 87 0 55 1;
#X connect 88 0 11 0;
#X connect 89 0 90 0;
#X connect 90 0 95 0;
#X connect 91 0 89 0;
#X connect 93 0 94 0;
#X connect 94 0 57 1;
#X connect 95 0 92 0;
#X connect 95 0 98 0;
#X connect 96 0 94 1;
#X connect 97 0 57 2;
#X connect 99 0 100 0;
#X connect 100 0 102 0;
#X connect 101 0 99 0;
#X connect 102 0 103 0;
#X connect 102 0 114 0;
#X connect 104 0 105 0;
#X connect 105 0 107 0;
#X connect 106 0 104 0;
#X connect 107 0 108 0;
#X connect 107 0 115 0;
#X connect 109 0 110 0;
#X connect 110 0 112 0;
#X connect 111 0 109 0;
#X connect 112 0 113 0;
#X connect 112 0 116 0;
#X connect 117 0 91 0;
#X connect 117 0 101 0;
#X connect 117 0 106 0;
#X connect 117 0 111 0;
#X connect 118 0 122 0;
#X connect 118 0 120 0;
#X connect 119 0 59 0;
#X connect 120 0 119 0;
#X connect 121 0 120 1;
#X connect 122 0 121 1;
#X connect 123 0 120 2;
#X connect 124 0 128 0;
#X connect 124 0 126 0;
#X connect 125 0 60 0;
#X connect 126 0 125 0;
#X connect 127 0 126 1;
#X connect 128 0 127 1;
#X connect 129 0 126 2;
#X connect 130 0 134 0;
#X connect 130 0 132 0;
#X connect 131 0 61 0;
#X connect 132 0 131 0;
#X connect 133 0 132 1;
#X connect 134 0 133 1;
#X connect 135 0 132 2;
#X connect 136 0 121 0;
#X connect 137 0 127 0;
#X connect 138 0 133 0;
#X connect 140 0 18 0;
#X connect 141 0 20 0;
#X connect 142 0 22 0;
#X connect 143 0 24 0;
