#N canvas 55 51 1319 779 12;
#X obj 32 178 bng 15 250 50 0 empty empty empty 17 7 0 10 -262144 -1
-1;
#X obj 77 200 + 1;
#X obj 32 197 f;
#X floatatom 31 254 5 0 0 0 - - -;
#X obj 31 224 % 4;
#X obj 29 282 select 0 1 2 3;
#X obj 28 315 bng 15 250 50 0 empty empty empty 17 7 0 10 -262144 -1
-1;
#X obj 51 314 bng 15 250 50 0 empty empty empty 17 7 0 10 -262144 -1
-1;
#X obj 78 316 bng 15 250 50 0 empty empty empty 17 7 0 10 -262144 -1
-1;
#X obj 103 318 bng 15 250 50 0 empty empty empty 17 7 0 10 -262144
-1 -1;
#X obj 914 647 dac~ 1 2 3 4;
#X obj 33 25 vsl 15 128 0 1 0 1 vol empty vol 0 -9 0 10 -262144 -1
-1 8890 1;
#X obj 759 547 *~;
#X obj 868 550 *~;
#X obj 979 542 *~;
#X obj 1123 548 *~;
#X msg 779 45 4;
#X floatatom 733 108 5 0 0 0 - - -;
#X obj 741 188 + 69;
#X floatatom 877 108 5 0 0 0 - - -;
#X obj 885 188 + 69;
#X floatatom 1002 112 5 0 0 0 - - -;
#X obj 1010 192 + 69;
#X floatatom 1146 112 5 0 0 0 - - -;
#X obj 1154 192 + 69;
#X msg 923 45 5;
#X msg 1048 49 6;
#X msg 1192 49 7;
#X text 951 -58 PITCH;
#X text 255 308 TRIGGER;
#X text 695 471 SYNTH;
#X msg 206 124 1;
#X msg 240 126 4;
#X obj 182 84 tgl 15 1 empty empty empty 17 7 0 10 -262144 -1 -1 1
1;
#X msg 199 154 120;
#X obj 178 269 bng 15 250 50 0 empty empty empty 17 7 0 10 -262144
-1 -1;
#X msg 309 121 1;
#X msg 343 123 4;
#X obj 285 81 tgl 15 1 empty empty empty 17 7 0 10 -262144 -1 -1 0
1;
#X obj 285 216 bng 15 250 50 0 empty empty empty 17 7 0 10 -262144
-1 -1;
#X msg 402 123 1;
#X msg 436 125 4;
#X obj 378 83 tgl 15 1 empty empty empty 17 7 0 10 -262144 -1 -1 0
1;
#X obj 378 218 bng 15 250 50 0 empty empty empty 17 7 0 10 -262144
-1 -1;
#X msg 505 120 1;
#X msg 539 122 4;
#X obj 481 80 tgl 15 1 empty empty empty 17 7 0 10 -262144 -1 -1 0
1;
#X obj 481 215 bng 15 250 50 0 empty empty empty 17 7 0 10 -262144
-1 -1;
#X obj 183 39 tgl 15 1 empty empty empty 17 7 0 10 -262144 -1 -1 1
1;
#X obj 739 141 * 7;
#X obj 883 141 * 7;
#X obj 1008 145 * 7;
#X obj 1152 145 * 7;
#X msg 24 652 48;
#X msg 66 654 50;
#X msg 82 471 32;
#X msg 395 153 124;
#X msg 498 150 126;
#X obj 28 598 select 0 1 2 3;
#X msg 152 654 50;
#X msg 110 652 52;
#X obj 82 525 / 4;
#X obj 27 553 /;
#X msg 302 151 122;
#X obj 93 3 tgl 15 1 empty empty empty 17 7 0 10 -262144 -1 -1 1 1
;
#X obj 89 440 tgl 15 1 empty empty empty 17 7 0 10 -262144 -1 -1 1
1;
#X obj 794 23 tgl 15 1 empty empty empty 17 7 0 10 -262144 -1 -1 1
1;
#X obj 936 24 tgl 15 1 empty empty empty 17 7 0 10 -262144 -1 -1 1
1;
#X obj 1063 27 tgl 15 1 empty empty empty 17 7 0 10 -262144 -1 -1 1
1;
#X obj 1205 28 tgl 15 1 empty empty empty 17 7 0 10 -262144 -1 -1 1
1;
#X obj 733 72 counter;
#X obj 877 72 counter;
#X obj 1002 76 counter;
#X obj 1146 76 counter;
#X obj 759 474 beep~;
#X obj 868 474 beep~;
#X obj 984 468 beep~;
#X obj 1123 470 beep~;
#X obj 26 501 counter;
#X obj 178 230 clock2;
#X obj 285 177 clock2;
#X obj 378 179 clock2;
#X obj 481 176 clock2;
#X obj 176 318 s t0;
#X obj 255 272 s t1;
#X obj 328 268 s t2;
#X obj 410 268 s t3;
#X obj 735 20 r t0;
#X obj 879 20 r t1;
#X obj 1004 24 r t2;
#X obj 1148 24 r t3;
#X obj 775 150 r root;
#X obj 911 154 r root;
#X obj 1044 148 r root;
#X obj 1186 149 r root;
#X obj 779 520 r vol;
#X obj 883 522 r vol;
#X obj 994 512 r vol;
#X obj 1136 519 r vol;
#X obj 29 688 s root;
#X obj 759 419 r t0;
#X obj 868 419 r t1;
#X obj 982 415 r t2;
#X obj 1122 416 r t3;
#X obj 29 433 r t0;
#X obj 748 228 s \$0-v0;
#X obj 884 228 s \$0-v1;
#X obj 1015 232 s \$0-v2;
#X obj 1151 232 s \$0-v3;
#X obj 790 445 r \$0-v0;
#X obj 901 447 r \$0-v1;
#X obj 1015 439 r \$0-v2;
#X obj 1155 440 r \$0-v3;
#X msg 89 35 0.7;
#X obj 520 452 lnois;
#X floatatom 537 517 5 0 0 0 - - -;
#X floatatom 521 394 5 0 0 0 - - -;
#X obj 538 598 * 40;
#X obj 196 192 + 80;
#X connect 0 0 2 0;
#X connect 1 0 2 1;
#X connect 2 0 1 0;
#X connect 2 0 4 0;
#X connect 3 0 5 0;
#X connect 4 0 3 0;
#X connect 5 0 6 0;
#X connect 5 1 7 0;
#X connect 5 2 8 0;
#X connect 5 3 9 0;
#X connect 12 0 10 0;
#X connect 13 0 10 1;
#X connect 14 0 10 2;
#X connect 15 0 10 3;
#X connect 16 0 70 1;
#X connect 17 0 49 0;
#X connect 18 0 105 0;
#X connect 19 0 50 0;
#X connect 20 0 106 0;
#X connect 21 0 51 0;
#X connect 22 0 107 0;
#X connect 23 0 52 0;
#X connect 24 0 108 0;
#X connect 25 0 71 1;
#X connect 26 0 72 1;
#X connect 27 0 73 1;
#X connect 31 0 79 2;
#X connect 32 0 79 2;
#X connect 33 0 34 0;
#X connect 33 0 31 0;
#X connect 33 0 79 0;
#X connect 34 0 118 0;
#X connect 35 0 83 0;
#X connect 36 0 80 2;
#X connect 37 0 80 2;
#X connect 38 0 63 0;
#X connect 38 0 36 0;
#X connect 38 0 80 0;
#X connect 39 0 84 0;
#X connect 40 0 81 2;
#X connect 41 0 81 2;
#X connect 42 0 56 0;
#X connect 42 0 40 0;
#X connect 42 0 81 0;
#X connect 43 0 85 0;
#X connect 44 0 82 2;
#X connect 45 0 82 2;
#X connect 46 0 57 0;
#X connect 46 0 44 0;
#X connect 46 0 82 0;
#X connect 47 0 86 0;
#X connect 48 0 33 0;
#X connect 48 0 38 0;
#X connect 48 0 42 0;
#X connect 48 0 46 0;
#X connect 49 0 18 0;
#X connect 50 0 20 0;
#X connect 51 0 22 0;
#X connect 52 0 24 0;
#X connect 53 0 99 0;
#X connect 54 0 99 0;
#X connect 55 0 61 0;
#X connect 55 0 78 1;
#X connect 56 0 81 1;
#X connect 57 0 82 1;
#X connect 58 0 53 0;
#X connect 58 1 54 0;
#X connect 58 2 60 0;
#X connect 58 3 59 0;
#X connect 59 0 99 0;
#X connect 60 0 99 0;
#X connect 61 0 62 1;
#X connect 62 0 58 0;
#X connect 63 0 80 1;
#X connect 64 0 113 0;
#X connect 65 0 55 0;
#X connect 66 0 16 0;
#X connect 67 0 25 0;
#X connect 68 0 26 0;
#X connect 69 0 27 0;
#X connect 70 0 17 0;
#X connect 71 0 19 0;
#X connect 72 0 21 0;
#X connect 73 0 23 0;
#X connect 74 0 12 0;
#X connect 75 0 13 0;
#X connect 76 0 14 0;
#X connect 77 0 15 0;
#X connect 78 0 62 0;
#X connect 79 0 35 0;
#X connect 80 0 39 0;
#X connect 81 0 43 0;
#X connect 82 0 47 0;
#X connect 87 0 70 0;
#X connect 88 0 71 0;
#X connect 89 0 72 0;
#X connect 90 0 73 0;
#X connect 91 0 18 1;
#X connect 92 0 20 1;
#X connect 93 0 22 1;
#X connect 94 0 24 1;
#X connect 95 0 12 1;
#X connect 96 0 13 1;
#X connect 97 0 14 1;
#X connect 98 0 15 1;
#X connect 100 0 74 0;
#X connect 101 0 75 0;
#X connect 102 0 76 0;
#X connect 103 0 77 0;
#X connect 104 0 78 0;
#X connect 109 0 74 1;
#X connect 110 0 75 1;
#X connect 111 0 76 1;
#X connect 112 0 77 1;
#X connect 113 0 11 0;
#X connect 114 0 115 0;
#X connect 115 0 117 0;
#X connect 116 0 114 0;
#X connect 117 0 118 0;
#X connect 118 0 79 1;
