#N canvas 791 320 700 500 12;
#X obj 50 90 metro;
#X obj 89 55 inlet;
#X floatatom 111 90 5 0 0 0 - - -;
#X text 153 91 freq;
#X obj 45 180 random 1000;
#X obj 45 216 / 1000;
#X obj 111 256 line;
#X obj 112 295 outlet;
#X text 25 9 outputs gradient noise \, interpolating between random
values;
#X connect 0 0 2 0;
#X connect 0 0 4 0;
#X connect 1 0 2 0;
#X connect 1 0 0 0;
#X connect 2 0 0 1;
#X connect 2 0 6 1;
#X connect 4 0 5 0;
#X connect 5 0 6 0;
#X connect 6 0 7 0;
