#N canvas 533 365 783 500 12;
#X obj 157 345 outlet;
#X obj 130 103 mod 12;
#X obj 442 55 tgl 15 1 empty empty C#/Db -10 -10 0 10 -1 -262144 -1
0 2;
#X obj 458 83 tgl 15 1 empty empty D 5 25 0 10 -262144 -1 -1 3 3;
#X obj 486 83 tgl 15 1 empty empty E 5 25 0 10 -262144 -1 -1 0 5;
#X obj 429 85 tgl 15 1 empty empty C 5 25 0 10 -262144 -1 -1 1 1;
#X obj 549 81 tgl 15 1 empty empty G 5 25 0 10 -262144 -1 -1 0 8;
#X obj 582 82 tgl 15 1 empty empty A 5 25 0 10 -262144 -1 -1 10 10
;
#X obj 520 83 tgl 15 1 empty empty F 5 25 0 10 -262144 -1 -1 0 6;
#X obj 612 80 tgl 15 1 empty empty B 5 25 0 10 -262144 -1 -1 12 12
;
#X obj 477 60 tgl 15 1 empty empty D#/Eb -10 -10 0 10 -1 -262144 -1
0 4;
#X obj 531 59 tgl 15 1 empty empty F#/Gb -10 -10 0 10 -1 -262144 -1
0 7;
#X obj 566 57 tgl 15 1 empty empty G#/Ab -10 -10 0 10 -1 -262144 -1
0 9;
#X obj 600 57 tgl 15 1 empty empty A#/Bb -10 -10 0 10 -1 -262144 -1
0 11;
#X text 484 128 Pitch Quantizer;
#X obj 158 290 spigot;
#X obj 448 183 - 1;
#X obj 487 182 - 1;
#X obj 521 183 - 1;
#X obj 468 155 - 1;
#X obj 509 158 - 1;
#X obj 558 184 - 1;
#X obj 594 185 - 1;
#X obj 625 185 - 1;
#X obj 658 185 - 1;
#X obj 579 159 - 1;
#X obj 613 160 - 1;
#X obj 644 159 - 1;
#X obj 325 254 expr if($i1==$i2 || $i1==$i3|| $i1==$i4|| $i1==$i5||
$i1==$i6|| $i1==$i7|| $i1==$i8|| $i1==$i9|| $i1==$i10|| $i1==$i11||
$i1==$i12|| $i1==$i13 \, 1 \, 0);
#X obj 18 129 / 12;
#X obj 17 160 div;
#X obj 17 189 * 12;
#X obj 52 218 +;
#X obj 22 69 inlet;
#X text 18 40 midi note #;
#X connect 1 0 28 0;
#X connect 1 0 32 1;
#X connect 2 0 19 0;
#X connect 3 0 17 0;
#X connect 4 0 18 0;
#X connect 5 0 16 0;
#X connect 6 0 22 0;
#X connect 7 0 23 0;
#X connect 8 0 21 0;
#X connect 9 0 24 0;
#X connect 10 0 20 0;
#X connect 11 0 25 0;
#X connect 12 0 26 0;
#X connect 13 0 27 0;
#X connect 15 0 0 0;
#X connect 16 0 28 1;
#X connect 17 0 28 3;
#X connect 18 0 28 5;
#X connect 19 0 28 2;
#X connect 20 0 28 4;
#X connect 21 0 28 6;
#X connect 22 0 28 8;
#X connect 23 0 28 10;
#X connect 24 0 28 12;
#X connect 25 0 28 7;
#X connect 26 0 28 9;
#X connect 27 0 28 11;
#X connect 28 0 15 1;
#X connect 29 0 30 0;
#X connect 30 0 31 0;
#X connect 31 0 32 0;
#X connect 32 0 15 0;
#X connect 33 0 1 0;
#X connect 33 0 29 0;
