#N canvas 1186 283 700 500 12;
#X obj 207 132 -;
#X obj 202 180 abs;
#X obj 116 67 inlet minNote;
#X obj 229 67 inlet maxNote;
#X obj 14 66 inlet value;
#X obj 164 254 *;
#X obj 135 303 +;
#X obj 136 359 outlet;
#X obj 284 154 metro 1;
#X obj 280 113 loadbang;
#X connect 0 0 1 0;
#X connect 1 0 5 1;
#X connect 2 0 0 1;
#X connect 2 0 6 0;
#X connect 3 0 0 0;
#X connect 4 0 5 0;
#X connect 5 0 6 1;
#X connect 6 0 7 0;
#X connect 8 0 0 0;
#X connect 8 0 5 0;
#X connect 8 0 6 0;
#X connect 9 0 8 0;
