#N canvas 885 174 926 713 12;
#X obj 435 427 *~;
#X obj 471 425 *~;
#X text 6 558 Channel speaker routing: 1 FL \, 2 FR \, 3 RL \, 4 RR
;
#X obj 468 322 -;
#X msg 458 292 1;
#X obj 327 478 *~;
#X obj 432 480 *~;
#X obj 365 479 *~;
#X obj 469 481 *~;
#X obj 732 422 -;
#X msg 713 386 1;
#X obj 342 210 inlet~;
#X obj 556 177 inlet;
#X obj 717 178 inlet;
#X obj 314 628 outlet~;
#X obj 373 629 outlet~;
#X obj 431 629 outlet~;
#X obj 489 629 outlet~;
#X text 520 148 X: left/right panning;
#X text 316 170 mono source;
#X text 685 145 Y: front/rear panning;
#X obj 553 217 clip 0 1;
#X obj 715 215 clip 0 1;
#X connect 0 0 5 0;
#X connect 0 0 6 0;
#X connect 1 0 7 0;
#X connect 1 0 8 0;
#X connect 3 0 0 1;
#X connect 4 0 3 0;
#X connect 5 0 14 0;
#X connect 6 0 16 0;
#X connect 7 0 15 0;
#X connect 8 0 17 0;
#X connect 9 0 6 1;
#X connect 9 0 8 1;
#X connect 10 0 9 0;
#X connect 11 0 0 0;
#X connect 11 0 1 0;
#X connect 12 0 21 0;
#X connect 13 0 22 0;
#X connect 21 0 4 0;
#X connect 21 0 3 1;
#X connect 21 0 1 1;
#X connect 22 0 9 1;
#X connect 22 0 10 0;
#X connect 22 0 7 1;
#X connect 22 0 5 1;
