#N canvas 666 342 782 500 12;
#X obj 48 51 inlet;
#X text 44 25 trigger;
#X obj 40 297 *~;
#X obj 38 385 outlet~;
#X obj 272 49 inlet;
#X text 269 20 volume;
#X obj 111 386 outlet~;
#X obj 81 298 *~;
#X obj 45 105 bng 15 250 50 0 empty empty empty 17 7 0 10 -262144 -1
-1;
#X obj 126 51 inlet;
#X text 270 4 NOTE: this could be bound to some velocity parameter...
;
#X obj 191 212 tabplay~ \$2r;
#X obj 41 210 tabplay~ \$2l;
#X msg 100 101 set \$1l;
#X msg 163 100 set \$1r;
#X text 134 25 name (array);
#X connect 0 0 8 0;
#X connect 2 0 3 0;
#X connect 4 0 2 1;
#X connect 4 0 7 1;
#X connect 7 0 6 0;
#X connect 8 0 12 0;
#X connect 8 0 11 0;
#X connect 9 0 13 0;
#X connect 9 0 14 0;
#X connect 11 0 7 0;
#X connect 12 0 2 0;
#X connect 13 0 12 0;
#X connect 14 0 11 0;
