#N canvas 1184 424 765 478 12;
#X obj 161 229 tabread scale;
#X obj 161 17 inlet;
#X obj 164 291 select -1;
#X obj 231 356 outlet;
#X text 249 317 will always output latest valid note;
#X text 307 108 maps input 0..1 to a given scale table with 128 notes
;
#X text 283 147 TODO: MAKE NOTE AMT DYNAMIC ACCORDING TO GIVEN TABLE
;
#X obj 244 19 loadbang;
#X obj 245 48 bng 15 250 50 0 empty empty empty 17 7 0 10 -262144 -1
-1;
#X obj 221 102 array size;
#X msg 268 74 symbol scale;
#X obj 216 144 - 1;
#X obj 161 167 *;
#X obj 297 258 line;
#X floatatom 77 237 5 0 0 0 - - -;
#X floatatom 97 290 5 0 0 0 - - -;
#X msg 298 221 \$1 4;
#X connect 0 0 2 0;
#X connect 1 0 12 0;
#X connect 2 1 3 0;
#X connect 7 0 8 0;
#X connect 8 0 10 0;
#X connect 8 0 9 0;
#X connect 9 0 11 0;
#X connect 10 0 9 1;
#X connect 11 0 12 1;
#X connect 12 0 14 0;
#X connect 12 0 16 0;
#X connect 13 0 0 0;
#X connect 13 0 15 0;
#X connect 16 0 13 0;
