#N canvas 908 129 1008 814 12;
#X obj 49 39 inlet;
#X obj 87 205 f;
#X obj 135 204 + 1;
#X obj 87 161 until;
#X msg 89 115 127;
#X obj 30 60 bng 15 250 50 0 empty empty empty 17 7 0 10 -262144 -1
-1;
#X obj 254 289 mod 12;
#X obj 554 249 tgl 15 1 empty empty C#/Db -10 -10 0 10 -1 -262144 -1
2 2;
#X obj 570 277 tgl 15 1 empty empty D 5 25 0 10 -262144 -1 -1 0 3;
#X obj 598 277 tgl 15 1 empty empty E 5 25 0 10 -262144 -1 -1 0 5;
#X obj 541 279 tgl 15 1 empty empty C 5 25 0 10 -262144 -1 -1 0 1;
#X obj 662 278 tgl 15 1 empty empty G 5 25 0 10 -262144 -1 -1 0 8;
#X obj 698 276 tgl 15 1 empty empty A 5 25 0 10 -262144 -1 -1 0 10
;
#X obj 632 277 tgl 15 1 empty empty F 5 25 0 10 -262144 -1 -1 0 6;
#X obj 740 277 tgl 15 1 empty empty B 5 25 0 10 -262144 -1 -1 0 12
;
#X obj 589 254 tgl 15 1 empty empty D#/Eb -10 -10 0 10 -1 -262144 -1
4 4;
#X obj 643 253 tgl 15 1 empty empty F#/Gb -10 -10 0 10 -1 -262144 -1
7 7;
#X obj 678 251 tgl 15 1 empty empty G#/Ab -10 -10 0 10 -1 -262144 -1
9 9;
#X obj 709 251 tgl 15 1 empty empty A#/Bb -10 -10 0 10 -1 -262144 -1
11 11;
#X text 608 314 Pitch Quantizer;
#X obj 572 369 - 1;
#X obj 611 368 - 1;
#X obj 645 369 - 1;
#X obj 592 341 - 1;
#X obj 633 344 - 1;
#X obj 682 370 - 1;
#X obj 718 371 - 1;
#X obj 749 371 - 1;
#X obj 782 371 - 1;
#X obj 703 345 - 1;
#X obj 737 346 - 1;
#X obj 768 345 - 1;
#X obj 232 685 tabwrite scale;
#X obj 51 76 == 0;
#X obj 449 440 expr if($i1==$i2 || $i1==$i3|| $i1==$i4|| $i1==$i5||
$i1==$i6|| $i1==$i7|| $i1==$i8|| $i1==$i9|| $i1==$i10|| $i1==$i11||
$i1==$i12|| $i1==$i13 \, $i14 \, -1);
#X text 46 12 bang make scale;
#X text 189 14 set scale (0 = note off / 1 = note on);
#N canvas 2415 173 700 500 convert 0;
#X obj 70 125 expr $i1*1 \; $i2*2 \; $i3*3 \; $i4*4 \; $i5*5 \; $i6*6
\; $i7*7 \; $i8*8 \; $i9*9 \; $i10*10 \; $i11*11 \; $i12*12, f 65
;
#X obj 24 49 inlet;
#X obj 59 384 outlet;
#X obj 105 384 outlet;
#X obj 151 384 outlet;
#X obj 197 384 outlet;
#X obj 243 384 outlet;
#X obj 289 384 outlet;
#X obj 335 384 outlet;
#X obj 381 384 outlet;
#X obj 427 384 outlet;
#X obj 473 384 outlet;
#X obj 519 384 outlet;
#X obj 565 384 outlet;
#X connect 0 0 2 0;
#X connect 0 1 3 0;
#X connect 0 2 4 0;
#X connect 0 3 5 0;
#X connect 0 4 6 0;
#X connect 0 5 7 0;
#X connect 0 6 8 0;
#X connect 0 7 9 0;
#X connect 0 8 10 0;
#X connect 0 9 11 0;
#X connect 0 10 12 0;
#X connect 0 11 13 0;
#X connect 1 0 0 0;
#X restore 554 147 pd convert;
#X f 22;
#X text 580 545 if -1 dont write \, if 1 write and go to next;
#X obj 376 612 spigot;
#X obj 442 569 + 1;
#X obj 614 683 print;
#X connect 0 0 37 0;
#X connect 0 0 5 0;
#X connect 1 0 2 0;
#X connect 1 0 6 0;
#X connect 1 0 34 13;
#X connect 1 0 32 1;
#X connect 2 0 1 1;
#X connect 3 0 1 0;
#X connect 4 0 3 0;
#X connect 5 0 33 0;
#X connect 6 0 34 0;
#X connect 7 0 23 0;
#X connect 8 0 21 0;
#X connect 9 0 22 0;
#X connect 10 0 20 0;
#X connect 11 0 26 0;
#X connect 12 0 27 0;
#X connect 13 0 25 0;
#X connect 14 0 28 0;
#X connect 15 0 24 0;
#X connect 16 0 29 0;
#X connect 17 0 30 0;
#X connect 18 0 31 0;
#X connect 20 0 34 1;
#X connect 21 0 34 3;
#X connect 22 0 34 5;
#X connect 23 0 34 2;
#X connect 24 0 34 4;
#X connect 25 0 34 6;
#X connect 26 0 34 8;
#X connect 27 0 34 10;
#X connect 28 0 34 12;
#X connect 29 0 34 7;
#X connect 30 0 34 9;
#X connect 31 0 34 11;
#X connect 33 0 1 0;
#X connect 33 0 4 0;
#X connect 34 0 40 0;
#X connect 34 0 39 0;
#X connect 37 0 10 0;
#X connect 37 1 7 0;
#X connect 37 2 8 0;
#X connect 37 3 15 0;
#X connect 37 4 9 0;
#X connect 37 5 13 0;
#X connect 37 6 16 0;
#X connect 37 7 11 0;
#X connect 37 8 17 0;
#X connect 37 9 12 0;
#X connect 37 10 18 0;
#X connect 37 11 14 0;
#X connect 39 0 32 0;
#X connect 39 0 41 0;
#X connect 40 0 39 1;
