#N canvas 616 277 869 660 12;
#X obj 36 136 inlet;
#X text 38 113 frequency;
#X obj 172 99 inlet;
#X text 166 73 waveform;
#X text 336 79 0: sine 1: tri 2: square 3: saw 4: tri-soft 5: square-soft
6: saw-soft;
#X obj 171 133 select 0 1 2 3 4 5 6;
#X obj 486 445 outlet~;
#X obj 487 412 tabread~;
#X obj 139 290 phasor~;
#X obj 248 261 loadbang;
#X obj 212 334 bng 15 250 50 0 empty empty empty 17 7 0 10 -262144
-1 -1;
#X obj 199 434 - 1;
#X obj 163 463 *~;
#X obj 203 404 array size;
#X msg 491 374 set \$1;
#X msg 527 184 symbol saw-soft;
#X msg 525 239 symbol tri-soft;
#X msg 524 268 symbol saw;
#X msg 523 296 symbol square;
#X msg 521 322 symbol tri;
#X msg 521 348 symbol sine;
#X msg 526 210 symbol square-soft;
#X connect 0 0 8 0;
#X connect 2 0 5 0;
#X connect 5 0 20 0;
#X connect 5 1 19 0;
#X connect 5 2 18 0;
#X connect 5 3 17 0;
#X connect 5 4 16 0;
#X connect 5 5 21 0;
#X connect 5 6 15 0;
#X connect 7 0 6 0;
#X connect 8 0 12 0;
#X connect 9 0 10 0;
#X connect 10 0 13 0;
#X connect 11 0 12 1;
#X connect 12 0 7 0;
#X connect 13 0 11 0;
#X connect 14 0 7 0;
#X connect 15 0 14 0;
#X connect 15 0 13 1;
#X connect 15 0 10 0;
#X connect 16 0 14 0;
#X connect 16 0 13 1;
#X connect 16 0 10 0;
#X connect 17 0 14 0;
#X connect 17 0 13 1;
#X connect 17 0 10 0;
#X connect 18 0 14 0;
#X connect 18 0 13 1;
#X connect 18 0 10 0;
#X connect 19 0 14 0;
#X connect 19 0 13 1;
#X connect 19 0 10 0;
#X connect 20 0 14 0;
#X connect 20 0 13 1;
#X connect 20 0 10 0;
#X connect 21 0 14 0;
#X connect 21 0 13 1;
#X connect 21 0 10 0;
