#N canvas 1535 126 663 683 12;
#X obj 37 37 inlet~;
#X obj 169 134 *~;
#X obj 72 210 expr~ if($v1 > 1 \, 2-$v1 \, $v1);
#X obj 74 240 expr~ if($v1 < -1 \, -2-$v1 \, $v1);
#X obj 71 269 expr~ if($v1 > 1 \, 2-$v1 \, $v1);
#X obj 73 299 expr~ if($v1 < -1 \, -2-$v1 \, $v1);
#X obj 69 364 outlet~;
#X obj 213 85 inlet;
#X text 207 61 fold amt;
#X text 31 8 signal;
#X connect 0 0 1 0;
#X connect 1 0 2 0;
#X connect 2 0 3 0;
#X connect 3 0 4 0;
#X connect 4 0 5 0;
#X connect 5 0 6 0;
#X connect 7 0 1 1;
